<?xml version="1.0" encoding="utf-8" standalone="no"?>
<!DOCTYPE svg PUBLIC "-//W3C//DTD SVG 1.1//EN"
  "http://www.w3.org/Graphics/SVG/1.1/DTD/svg11.dtd">
<!-- Created with matplotlib (http://matplotlib.org/) -->
<svg height="601pt" version="1.1" viewBox="0 0 1164 601" width="1164pt" xmlns="http://www.w3.org/2000/svg" xmlns:xlink="http://www.w3.org/1999/xlink">
 <defs>
  <style type="text/css">
*{stroke-linecap:butt;stroke-linejoin:round;}
  </style>
 </defs>
 <g id="figure_1">
  <g id="patch_1">
   <path d="
M0 601.196
L1164.08 601.196
L1164.08 0
L0 0
z
" style="fill:#ffffff;"/>
  </g>
  <g id="axes_1">
   <g id="patch_2">
    <path d="
M40.8828 579.318
L1156.88 579.318
L1156.88 21.3181
L40.8828 21.3181
z
" style="fill:#ffffff;"/>
   </g>
   <g id="line2d_1">
    <path clip-path="url(#p7926581f17)" d="
M40.8828 573.848
L52.2706 573.597
L63.6583 573.314
L75.0461 572.992
L86.4338 572.626
L97.8216 572.207
L109.209 571.728
L120.597 571.178
L131.985 570.543
L143.373 569.809
L154.76 568.957
L166.148 567.965
L177.536 566.803
L188.924 565.439
L200.311 563.829
L211.699 561.921
L223.087 559.648
L234.475 556.925
L245.862 553.648
L257.25 549.679
L268.638 544.844
L280.026 538.917
L291.413 531.603
L302.801 522.52
L314.189 511.165
L325.577 496.881
L336.964 478.821
L348.352 455.917
L359.74 426.892
L371.128 390.392
L382.515 345.378
L393.903 291.959
L405.291 232.617
L416.679 172.99
L428.066 120.529
L439.454 80.8533
L450.842 54.9929
L462.23 40.2052
L473.618 32.6329
L485.005 29.1135
L496.393 27.6245
L507.781 27.0552
L519.169 26.862
L530.556 26.8054
L541.944 26.7917
L553.332 26.7891
L564.72 26.7887
L576.107 26.7887
L587.495 26.7887
L598.883 26.7887
L610.271 26.7887
L621.658 26.7887
L633.046 26.7887
L644.434 26.7888
L655.822 26.7898
L667.209 26.796
L678.597 26.8253
L689.985 26.9342
L701.373 27.2775
L712.76 28.2262
L724.148 30.5771
L735.536 35.8681
L746.924 46.7061
L758.311 66.7415
L769.699 99.5741
L781.087 146.292
L792.475 203.361
L803.862 263.717
L815.25 320.499
L826.638 369.705
L838.026 410.238
L849.413 442.716
L860.801 468.412
L872.189 488.669
L883.577 504.661
L894.964 517.341
L906.352 527.453
L917.74 535.569
L929.128 542.125
L940.515 547.457
L951.903 551.821
L963.291 555.414
L974.679 558.391
L986.066 560.87
L997.454 562.946
L1008.84 564.693
L1020.23 566.17
L1031.62 567.425
L1043.01 568.496
L1054.39 569.413
L1065.78 570.201
L1077.17 570.882
L1088.56 571.471
L1099.94 571.983
L1111.33 572.43
L1122.72 572.821
L1134.11 573.163
L1145.5 573.464
L1156.88 573.73" style="fill:none;stroke:#0000ff;stroke-linecap:square;stroke-width:1.25;"/>
    <defs>
     <path d="
M0 3
C0.795609 3 1.55874 2.6839 2.12132 2.12132
C2.6839 1.55874 3 0.795609 3 0
C3 -0.795609 2.6839 -1.55874 2.12132 -2.12132
C1.55874 -2.6839 0.795609 -3 0 -3
C-0.795609 -3 -1.55874 -2.6839 -2.12132 -2.12132
C-2.6839 -1.55874 -3 -0.795609 -3 0
C-3 0.795609 -2.6839 1.55874 -2.12132 2.12132
C-1.55874 2.6839 -0.795609 3 0 3
z
" id="mf17b82e932" style="stroke:#0000ff;stroke-width:1.25;"/>
    </defs>
    <g clip-path="url(#p7926581f17)">
     <use style="fill:#ffffff;stroke:#0000ff;stroke-width:1.25;" x="40.8828125" xlink:href="#mf17b82e932" y="573.847536765"/>
     <use style="fill:#ffffff;stroke:#0000ff;stroke-width:1.25;" x="52.270567602" xlink:href="#mf17b82e932" y="573.597303692"/>
     <use style="fill:#ffffff;stroke:#0000ff;stroke-width:1.25;" x="63.6583227041" xlink:href="#mf17b82e932" y="573.313917332"/>
     <use style="fill:#ffffff;stroke:#0000ff;stroke-width:1.25;" x="75.0460778061" xlink:href="#mf17b82e932" y="572.99213915"/>
     <use style="fill:#ffffff;stroke:#0000ff;stroke-width:1.25;" x="86.4338329082" xlink:href="#mf17b82e932" y="572.625763179"/>
     <use style="fill:#ffffff;stroke:#0000ff;stroke-width:1.25;" x="97.8215880102" xlink:href="#mf17b82e932" y="572.207410417"/>
     <use style="fill:#ffffff;stroke:#0000ff;stroke-width:1.25;" x="109.209343112" xlink:href="#mf17b82e932" y="571.728273545"/>
     <use style="fill:#ffffff;stroke:#0000ff;stroke-width:1.25;" x="120.597098214" xlink:href="#mf17b82e932" y="571.177798481"/>
     <use style="fill:#ffffff;stroke:#0000ff;stroke-width:1.25;" x="131.984853316" xlink:href="#mf17b82e932" y="570.543285179"/>
     <use style="fill:#ffffff;stroke:#0000ff;stroke-width:1.25;" x="143.372608418" xlink:href="#mf17b82e932" y="569.809384632"/>
     <use style="fill:#ffffff;stroke:#0000ff;stroke-width:1.25;" x="154.76036352" xlink:href="#mf17b82e932" y="568.957461734"/>
     <use style="fill:#ffffff;stroke:#0000ff;stroke-width:1.25;" x="166.148118622" xlink:href="#mf17b82e932" y="567.96478377"/>
     <use style="fill:#ffffff;stroke:#0000ff;stroke-width:1.25;" x="177.535873724" xlink:href="#mf17b82e932" y="566.80348091"/>
     <use style="fill:#ffffff;stroke:#0000ff;stroke-width:1.25;" x="188.923628827" xlink:href="#mf17b82e932" y="565.439206839"/>
     <use style="fill:#ffffff;stroke:#0000ff;stroke-width:1.25;" x="200.311383929" xlink:href="#mf17b82e932" y="563.829402602"/>
     <use style="fill:#ffffff;stroke:#0000ff;stroke-width:1.25;" x="211.699139031" xlink:href="#mf17b82e932" y="561.921032368"/>
     <use style="fill:#ffffff;stroke:#0000ff;stroke-width:1.25;" x="223.086894133" xlink:href="#mf17b82e932" y="559.647612371"/>
     <use style="fill:#ffffff;stroke:#0000ff;stroke-width:1.25;" x="234.474649235" xlink:href="#mf17b82e932" y="556.925289057"/>
     <use style="fill:#ffffff;stroke:#0000ff;stroke-width:1.25;" x="245.862404337" xlink:href="#mf17b82e932" y="553.647632999"/>
     <use style="fill:#ffffff;stroke:#0000ff;stroke-width:1.25;" x="257.250159439" xlink:href="#mf17b82e932" y="549.678694194"/>
     <use style="fill:#ffffff;stroke:#0000ff;stroke-width:1.25;" x="268.637914541" xlink:href="#mf17b82e932" y="544.843705027"/>
     <use style="fill:#ffffff;stroke:#0000ff;stroke-width:1.25;" x="280.025669643" xlink:href="#mf17b82e932" y="538.91661865"/>
     <use style="fill:#ffffff;stroke:#0000ff;stroke-width:1.25;" x="291.413424745" xlink:href="#mf17b82e932" y="531.603452709"/>
     <use style="fill:#ffffff;stroke:#0000ff;stroke-width:1.25;" x="302.801179847" xlink:href="#mf17b82e932" y="522.520249206"/>
     <use style="fill:#ffffff;stroke:#0000ff;stroke-width:1.25;" x="314.188934949" xlink:href="#mf17b82e932" y="511.164588955"/>
     <use style="fill:#ffffff;stroke:#0000ff;stroke-width:1.25;" x="325.576690051" xlink:href="#mf17b82e932" y="496.880606688"/>
     <use style="fill:#ffffff;stroke:#0000ff;stroke-width:1.25;" x="336.964445153" xlink:href="#mf17b82e932" y="478.820778904"/>
     <use style="fill:#ffffff;stroke:#0000ff;stroke-width:1.25;" x="348.352200255" xlink:href="#mf17b82e932" y="455.916645423"/>
     <use style="fill:#ffffff;stroke:#0000ff;stroke-width:1.25;" x="359.739955357" xlink:href="#mf17b82e932" y="426.891585496"/>
     <use style="fill:#ffffff;stroke:#0000ff;stroke-width:1.25;" x="371.127710459" xlink:href="#mf17b82e932" y="390.39169503"/>
     <use style="fill:#ffffff;stroke:#0000ff;stroke-width:1.25;" x="382.515465561" xlink:href="#mf17b82e932" y="345.378025809"/>
     <use style="fill:#ffffff;stroke:#0000ff;stroke-width:1.25;" x="393.903220663" xlink:href="#mf17b82e932" y="291.958706363"/>
     <use style="fill:#ffffff;stroke:#0000ff;stroke-width:1.25;" x="405.290975765" xlink:href="#mf17b82e932" y="232.617276921"/>
     <use style="fill:#ffffff;stroke:#0000ff;stroke-width:1.25;" x="416.678730867" xlink:href="#mf17b82e932" y="172.990025749"/>
     <use style="fill:#ffffff;stroke:#0000ff;stroke-width:1.25;" x="428.066485969" xlink:href="#mf17b82e932" y="120.529456145"/>
     <use style="fill:#ffffff;stroke:#0000ff;stroke-width:1.25;" x="439.454241071" xlink:href="#mf17b82e932" y="80.8532701003"/>
     <use style="fill:#ffffff;stroke:#0000ff;stroke-width:1.25;" x="450.841996173" xlink:href="#mf17b82e932" y="54.9928604786"/>
     <use style="fill:#ffffff;stroke:#0000ff;stroke-width:1.25;" x="462.229751276" xlink:href="#mf17b82e932" y="40.2051943156"/>
     <use style="fill:#ffffff;stroke:#0000ff;stroke-width:1.25;" x="473.617506378" xlink:href="#mf17b82e932" y="32.6328888445"/>
     <use style="fill:#ffffff;stroke:#0000ff;stroke-width:1.25;" x="485.00526148" xlink:href="#mf17b82e932" y="29.1134932369"/>
     <use style="fill:#ffffff;stroke:#0000ff;stroke-width:1.25;" x="496.393016582" xlink:href="#mf17b82e932" y="27.6244654933"/>
     <use style="fill:#ffffff;stroke:#0000ff;stroke-width:1.25;" x="507.780771684" xlink:href="#mf17b82e932" y="27.0552275197"/>
     <use style="fill:#ffffff;stroke:#0000ff;stroke-width:1.25;" x="519.168526786" xlink:href="#mf17b82e932" y="26.8619973929"/>
     <use style="fill:#ffffff;stroke:#0000ff;stroke-width:1.25;" x="530.556281888" xlink:href="#mf17b82e932" y="26.8053852313"/>
     <use style="fill:#ffffff;stroke:#0000ff;stroke-width:1.25;" x="541.94403699" xlink:href="#mf17b82e932" y="26.7916701872"/>
     <use style="fill:#ffffff;stroke:#0000ff;stroke-width:1.25;" x="553.331792092" xlink:href="#mf17b82e932" y="26.7890918801"/>
     <use style="fill:#ffffff;stroke:#0000ff;stroke-width:1.25;" x="564.719547194" xlink:href="#mf17b82e932" y="26.7887475472"/>
     <use style="fill:#ffffff;stroke:#0000ff;stroke-width:1.25;" x="576.107302296" xlink:href="#mf17b82e932" y="26.788716584"/>
     <use style="fill:#ffffff;stroke:#0000ff;stroke-width:1.25;" x="587.495057398" xlink:href="#mf17b82e932" y="26.7887137323"/>
     <use style="fill:#ffffff;stroke:#0000ff;stroke-width:1.25;" x="598.8828125" xlink:href="#mf17b82e932" y="26.7887132353"/>
     <use style="fill:#ffffff;stroke:#0000ff;stroke-width:1.25;" x="610.270567602" xlink:href="#mf17b82e932" y="26.7887133816"/>
     <use style="fill:#ffffff;stroke:#0000ff;stroke-width:1.25;" x="621.658322704" xlink:href="#mf17b82e932" y="26.788713781"/>
     <use style="fill:#ffffff;stroke:#0000ff;stroke-width:1.25;" x="633.046077806" xlink:href="#mf17b82e932" y="26.7887167451"/>
     <use style="fill:#ffffff;stroke:#0000ff;stroke-width:1.25;" x="644.433832908" xlink:href="#mf17b82e932" y="26.7888070556"/>
     <use style="fill:#ffffff;stroke:#0000ff;stroke-width:1.25;" x="655.82158801" xlink:href="#mf17b82e932" y="26.7897794322"/>
     <use style="fill:#ffffff;stroke:#0000ff;stroke-width:1.25;" x="667.209343112" xlink:href="#mf17b82e932" y="26.7960383158"/>
     <use style="fill:#ffffff;stroke:#0000ff;stroke-width:1.25;" x="678.597098214" xlink:href="#mf17b82e932" y="26.8252562021"/>
     <use style="fill:#ffffff;stroke:#0000ff;stroke-width:1.25;" x="689.984853316" xlink:href="#mf17b82e932" y="26.9341855844"/>
     <use style="fill:#ffffff;stroke:#0000ff;stroke-width:1.25;" x="701.372608418" xlink:href="#mf17b82e932" y="27.2775219519"/>
     <use style="fill:#ffffff;stroke:#0000ff;stroke-width:1.25;" x="712.76036352" xlink:href="#mf17b82e932" y="28.2261568134"/>
     <use style="fill:#ffffff;stroke:#0000ff;stroke-width:1.25;" x="724.148118622" xlink:href="#mf17b82e932" y="30.5770887382"/>
     <use style="fill:#ffffff;stroke:#0000ff;stroke-width:1.25;" x="735.535873724" xlink:href="#mf17b82e932" y="35.8680638451"/>
     <use style="fill:#ffffff;stroke:#0000ff;stroke-width:1.25;" x="746.923628827" xlink:href="#mf17b82e932" y="46.7061015659"/>
     <use style="fill:#ffffff;stroke:#0000ff;stroke-width:1.25;" x="758.311383929" xlink:href="#mf17b82e932" y="66.7415039801"/>
     <use style="fill:#ffffff;stroke:#0000ff;stroke-width:1.25;" x="769.699139031" xlink:href="#mf17b82e932" y="99.5741368775"/>
     <use style="fill:#ffffff;stroke:#0000ff;stroke-width:1.25;" x="781.086894133" xlink:href="#mf17b82e932" y="146.291784241"/>
     <use style="fill:#ffffff;stroke:#0000ff;stroke-width:1.25;" x="792.474649235" xlink:href="#mf17b82e932" y="203.361334991"/>
     <use style="fill:#ffffff;stroke:#0000ff;stroke-width:1.25;" x="803.862404337" xlink:href="#mf17b82e932" y="263.716775543"/>
     <use style="fill:#ffffff;stroke:#0000ff;stroke-width:1.25;" x="815.250159439" xlink:href="#mf17b82e932" y="320.498704199"/>
     <use style="fill:#ffffff;stroke:#0000ff;stroke-width:1.25;" x="826.637914541" xlink:href="#mf17b82e932" y="369.705318645"/>
     <use style="fill:#ffffff;stroke:#0000ff;stroke-width:1.25;" x="838.025669643" xlink:href="#mf17b82e932" y="410.238068958"/>
     <use style="fill:#ffffff;stroke:#0000ff;stroke-width:1.25;" x="849.413424745" xlink:href="#mf17b82e932" y="442.715835779"/>
     <use style="fill:#ffffff;stroke:#0000ff;stroke-width:1.25;" x="860.801179847" xlink:href="#mf17b82e932" y="468.412069587"/>
     <use style="fill:#ffffff;stroke:#0000ff;stroke-width:1.25;" x="872.188934949" xlink:href="#mf17b82e932" y="488.668698977"/>
     <use style="fill:#ffffff;stroke:#0000ff;stroke-width:1.25;" x="883.576690051" xlink:href="#mf17b82e932" y="504.661096148"/>
     <use style="fill:#ffffff;stroke:#0000ff;stroke-width:1.25;" x="894.964445153" xlink:href="#mf17b82e932" y="517.341354124"/>
     <use style="fill:#ffffff;stroke:#0000ff;stroke-width:1.25;" x="906.352200255" xlink:href="#mf17b82e932" y="527.453333514"/>
     <use style="fill:#ffffff;stroke:#0000ff;stroke-width:1.25;" x="917.739955357" xlink:href="#mf17b82e932" y="535.568954227"/>
     <use style="fill:#ffffff;stroke:#0000ff;stroke-width:1.25;" x="929.127710459" xlink:href="#mf17b82e932" y="542.125497838"/>
     <use style="fill:#ffffff;stroke:#0000ff;stroke-width:1.25;" x="940.515465561" xlink:href="#mf17b82e932" y="547.457347261"/>
     <use style="fill:#ffffff;stroke:#0000ff;stroke-width:1.25;" x="951.903220663" xlink:href="#mf17b82e932" y="551.821038286"/>
     <use style="fill:#ffffff;stroke:#0000ff;stroke-width:1.25;" x="963.290975765" xlink:href="#mf17b82e932" y="555.414366146"/>
     <use style="fill:#ffffff;stroke:#0000ff;stroke-width:1.25;" x="974.678730867" xlink:href="#mf17b82e932" y="558.390733639"/>
     <use style="fill:#ffffff;stroke:#0000ff;stroke-width:1.25;" x="986.066485969" xlink:href="#mf17b82e932" y="560.869863549"/>
     <use style="fill:#ffffff;stroke:#0000ff;stroke-width:1.25;" x="997.454241071" xlink:href="#mf17b82e932" y="562.945793042"/>
     <use style="fill:#ffffff;stroke:#0000ff;stroke-width:1.25;" x="1008.84199617" xlink:href="#mf17b82e932" y="564.69285516"/>
     <use style="fill:#ffffff;stroke:#0000ff;stroke-width:1.25;" x="1020.22975128" xlink:href="#mf17b82e932" y="566.17017372"/>
     <use style="fill:#ffffff;stroke:#0000ff;stroke-width:1.25;" x="1031.61750638" xlink:href="#mf17b82e932" y="567.425059087"/>
     <use style="fill:#ffffff;stroke:#0000ff;stroke-width:1.25;" x="1043.00526148" xlink:href="#mf17b82e932" y="568.495588583"/>
     <use style="fill:#ffffff;stroke:#0000ff;stroke-width:1.25;" x="1054.39301658" xlink:href="#mf17b82e932" y="569.41257925"/>
     <use style="fill:#ffffff;stroke:#0000ff;stroke-width:1.25;" x="1065.78077168" xlink:href="#mf17b82e932" y="570.201105298"/>
     <use style="fill:#ffffff;stroke:#0000ff;stroke-width:1.25;" x="1077.16852679" xlink:href="#mf17b82e932" y="570.881672416"/>
     <use style="fill:#ffffff;stroke:#0000ff;stroke-width:1.25;" x="1088.55628189" xlink:href="#mf17b82e932" y="571.471131969"/>
     <use style="fill:#ffffff;stroke:#0000ff;stroke-width:1.25;" x="1099.94403699" xlink:href="#mf17b82e932" y="571.983396791"/>
     <use style="fill:#ffffff;stroke:#0000ff;stroke-width:1.25;" x="1111.33179209" xlink:href="#mf17b82e932" y="572.430004804"/>
     <use style="fill:#ffffff;stroke:#0000ff;stroke-width:1.25;" x="1122.71954719" xlink:href="#mf17b82e932" y="572.820565192"/>
     <use style="fill:#ffffff;stroke:#0000ff;stroke-width:1.25;" x="1134.1073023" xlink:href="#mf17b82e932" y="573.163113453"/>
     <use style="fill:#ffffff;stroke:#0000ff;stroke-width:1.25;" x="1145.4950574" xlink:href="#mf17b82e932" y="573.464395361"/>
     <use style="fill:#ffffff;stroke:#0000ff;stroke-width:1.25;" x="1156.8828125" xlink:href="#mf17b82e932" y="573.730095153"/>
    </g>
   </g>
   <g id="matplotlib.axis_1">
    <g id="text_1">
     <!-- w [rad/s] -->
     <defs>
      <path id="BitstreamVeraSans-Roman-20"/>
      <path d="
M8.59375 75.9844
L29.2969 75.9844
L29.2969 69
L17.5781 69
L17.5781 -6.20312
L29.2969 -6.20312
L29.2969 -13.1875
L8.59375 -13.1875
z
" id="BitstreamVeraSans-Roman-5b"/>
      <path d="
M30.4219 75.9844
L30.4219 -13.1875
L9.71875 -13.1875
L9.71875 -6.20312
L21.3906 -6.20312
L21.3906 69
L9.71875 69
L9.71875 75.9844
z
" id="BitstreamVeraSans-Roman-5d"/>
      <path d="
M34.2812 27.4844
Q23.3906 27.4844 19.1875 25
Q14.9844 22.5156 14.9844 16.5
Q14.9844 11.7188 18.1406 8.90625
Q21.2969 6.10938 26.7031 6.10938
Q34.1875 6.10938 38.7031 11.4062
Q43.2188 16.7031 43.2188 25.4844
L43.2188 27.4844
z

M52.2031 31.2031
L52.2031 0
L43.2188 0
L43.2188 8.29688
Q40.1406 3.32812 35.5469 0.953125
Q30.9531 -1.42188 24.3125 -1.42188
Q15.9219 -1.42188 10.9531 3.29688
Q6 8.01562 6 15.9219
Q6 25.1406 12.1719 29.8281
Q18.3594 34.5156 30.6094 34.5156
L43.2188 34.5156
L43.2188 35.4062
Q43.2188 41.6094 39.1406 45
Q35.0625 48.3906 27.6875 48.3906
Q23 48.3906 18.5469 47.2656
Q14.1094 46.1406 10.0156 43.8906
L10.0156 52.2031
Q14.9375 54.1094 19.5781 55.0469
Q24.2188 56 28.6094 56
Q40.4844 56 46.3438 49.8438
Q52.2031 43.7031 52.2031 31.2031" id="BitstreamVeraSans-Roman-61"/>
      <path d="
M25.3906 72.9062
L33.6875 72.9062
L8.29688 -9.28125
L0 -9.28125
z
" id="BitstreamVeraSans-Roman-2f"/>
      <path d="
M4.20312 54.6875
L13.1875 54.6875
L24.4219 12.0156
L35.5938 54.6875
L46.1875 54.6875
L57.4219 12.0156
L68.6094 54.6875
L77.5938 54.6875
L63.2812 0
L52.6875 0
L40.9219 44.8281
L29.1094 0
L18.5 0
z
" id="BitstreamVeraSans-Roman-77"/>
      <path d="
M45.4062 46.3906
L45.4062 75.9844
L54.3906 75.9844
L54.3906 0
L45.4062 0
L45.4062 8.20312
Q42.5781 3.32812 38.25 0.953125
Q33.9375 -1.42188 27.875 -1.42188
Q17.9688 -1.42188 11.7344 6.48438
Q5.51562 14.4062 5.51562 27.2969
Q5.51562 40.1875 11.7344 48.0938
Q17.9688 56 27.875 56
Q33.9375 56 38.25 53.625
Q42.5781 51.2656 45.4062 46.3906
M14.7969 27.2969
Q14.7969 17.3906 18.875 11.75
Q22.9531 6.10938 30.0781 6.10938
Q37.2031 6.10938 41.2969 11.75
Q45.4062 17.3906 45.4062 27.2969
Q45.4062 37.2031 41.2969 42.8438
Q37.2031 48.4844 30.0781 48.4844
Q22.9531 48.4844 18.875 42.8438
Q14.7969 37.2031 14.7969 27.2969" id="BitstreamVeraSans-Roman-64"/>
      <path d="
M41.1094 46.2969
Q39.5938 47.1719 37.8125 47.5781
Q36.0312 48 33.8906 48
Q26.2656 48 22.1875 43.0469
Q18.1094 38.0938 18.1094 28.8125
L18.1094 0
L9.07812 0
L9.07812 54.6875
L18.1094 54.6875
L18.1094 46.1875
Q20.9531 51.1719 25.4844 53.5781
Q30.0312 56 36.5312 56
Q37.4531 56 38.5781 55.875
Q39.7031 55.7656 41.0625 55.5156
z
" id="BitstreamVeraSans-Roman-72"/>
      <path d="
M44.2812 53.0781
L44.2812 44.5781
Q40.4844 46.5312 36.375 47.5
Q32.2812 48.4844 27.875 48.4844
Q21.1875 48.4844 17.8438 46.4375
Q14.5 44.3906 14.5 40.2812
Q14.5 37.1562 16.8906 35.375
Q19.2812 33.5938 26.5156 31.9844
L29.5938 31.2969
Q39.1562 29.25 43.1875 25.5156
Q47.2188 21.7812 47.2188 15.0938
Q47.2188 7.46875 41.1875 3.01562
Q35.1562 -1.42188 24.6094 -1.42188
Q20.2188 -1.42188 15.4531 -0.5625
Q10.6875 0.296875 5.42188 2
L5.42188 11.2812
Q10.4062 8.6875 15.2344 7.39062
Q20.0625 6.10938 24.8125 6.10938
Q31.1562 6.10938 34.5625 8.28125
Q37.9844 10.4531 37.9844 14.4062
Q37.9844 18.0625 35.5156 20.0156
Q33.0625 21.9688 24.7031 23.7812
L21.5781 24.5156
Q13.2344 26.2656 9.51562 29.9062
Q5.8125 33.5469 5.8125 39.8906
Q5.8125 47.6094 11.2812 51.7969
Q16.75 56 26.8125 56
Q31.7812 56 36.1719 55.2656
Q40.5781 54.5469 44.2812 53.0781" id="BitstreamVeraSans-Roman-73"/>
     </defs>
     <g transform="translate(577.15 591.9165625)scale(0.1 -0.1)">
      <use xlink:href="#BitstreamVeraSans-Roman-77"/>
      <use x="81.787109375" xlink:href="#BitstreamVeraSans-Roman-20"/>
      <use x="113.57421875" xlink:href="#BitstreamVeraSans-Roman-5b"/>
      <use x="152.587890625" xlink:href="#BitstreamVeraSans-Roman-72"/>
      <use x="193.701171875" xlink:href="#BitstreamVeraSans-Roman-61"/>
      <use x="254.98046875" xlink:href="#BitstreamVeraSans-Roman-64"/>
      <use x="318.45703125" xlink:href="#BitstreamVeraSans-Roman-2f"/>
      <use x="352.1484375" xlink:href="#BitstreamVeraSans-Roman-73"/>
      <use x="404.248046875" xlink:href="#BitstreamVeraSans-Roman-5d"/>
     </g>
    </g>
   </g>
   <g id="matplotlib.axis_2">
    <g id="ytick_1">
     <g id="line2d_2">
      <defs>
       <path d="
M0 0
L4 0" id="m728421d6d4" style="stroke:#000000;stroke-width:0.5;"/>
      </defs>
      <g>
       <use style="stroke:#000000;stroke-width:0.5;" x="40.8828125" xlink:href="#m728421d6d4" y="576.16320727"/>
      </g>
     </g>
     <g id="text_2">
      <!-- 0.0 -->
      <defs>
       <path d="
M31.7812 66.4062
Q24.1719 66.4062 20.3281 58.9062
Q16.5 51.4219 16.5 36.375
Q16.5 21.3906 20.3281 13.8906
Q24.1719 6.39062 31.7812 6.39062
Q39.4531 6.39062 43.2812 13.8906
Q47.125 21.3906 47.125 36.375
Q47.125 51.4219 43.2812 58.9062
Q39.4531 66.4062 31.7812 66.4062
M31.7812 74.2188
Q44.0469 74.2188 50.5156 64.5156
Q56.9844 54.8281 56.9844 36.375
Q56.9844 17.9688 50.5156 8.26562
Q44.0469 -1.42188 31.7812 -1.42188
Q19.5312 -1.42188 13.0625 8.26562
Q6.59375 17.9688 6.59375 36.375
Q6.59375 54.8281 13.0625 64.5156
Q19.5312 74.2188 31.7812 74.2188" id="BitstreamVeraSans-Roman-30"/>
       <path d="
M10.6875 12.4062
L21 12.4062
L21 0
L10.6875 0
z
" id="BitstreamVeraSans-Roman-2e"/>
      </defs>
      <g transform="translate(22.303125 578.92258227)scale(0.1 -0.1)">
       <use xlink:href="#BitstreamVeraSans-Roman-30"/>
       <use x="63.623046875" xlink:href="#BitstreamVeraSans-Roman-2e"/>
       <use x="95.41015625" xlink:href="#BitstreamVeraSans-Roman-30"/>
      </g>
     </g>
    </g>
    <g id="ytick_2">
     <g id="line2d_3">
      <g>
       <use style="stroke:#000000;stroke-width:0.5;" x="40.8828125" xlink:href="#m728421d6d4" y="466.28827556"/>
      </g>
     </g>
     <g id="text_3">
      <!-- 0.1 -->
      <defs>
       <path d="
M12.4062 8.29688
L28.5156 8.29688
L28.5156 63.9219
L10.9844 60.4062
L10.9844 69.3906
L28.4219 72.9062
L38.2812 72.9062
L38.2812 8.29688
L54.3906 8.29688
L54.3906 0
L12.4062 0
z
" id="BitstreamVeraSans-Roman-31"/>
      </defs>
      <g transform="translate(22.5625 469.04765056)scale(0.1 -0.1)">
       <use xlink:href="#BitstreamVeraSans-Roman-30"/>
       <use x="63.623046875" xlink:href="#BitstreamVeraSans-Roman-2e"/>
       <use x="95.41015625" xlink:href="#BitstreamVeraSans-Roman-31"/>
      </g>
     </g>
    </g>
    <g id="ytick_3">
     <g id="line2d_4">
      <g>
       <use style="stroke:#000000;stroke-width:0.5;" x="40.8828125" xlink:href="#m728421d6d4" y="356.41334385"/>
      </g>
     </g>
     <g id="text_4">
      <!-- 0.2 -->
      <defs>
       <path d="
M19.1875 8.29688
L53.6094 8.29688
L53.6094 0
L7.32812 0
L7.32812 8.29688
Q12.9375 14.1094 22.625 23.8906
Q32.3281 33.6875 34.8125 36.5312
Q39.5469 41.8438 41.4219 45.5312
Q43.3125 49.2188 43.3125 52.7812
Q43.3125 58.5938 39.2344 62.25
Q35.1562 65.9219 28.6094 65.9219
Q23.9688 65.9219 18.8125 64.3125
Q13.6719 62.7031 7.8125 59.4219
L7.8125 69.3906
Q13.7656 71.7812 18.9375 73
Q24.125 74.2188 28.4219 74.2188
Q39.75 74.2188 46.4844 68.5469
Q53.2188 62.8906 53.2188 53.4219
Q53.2188 48.9219 51.5312 44.8906
Q49.8594 40.875 45.4062 35.4062
Q44.1875 33.9844 37.6406 27.2188
Q31.1094 20.4531 19.1875 8.29688" id="BitstreamVeraSans-Roman-32"/>
      </defs>
      <g transform="translate(22.640625 359.17271885)scale(0.1 -0.1)">
       <use xlink:href="#BitstreamVeraSans-Roman-30"/>
       <use x="63.623046875" xlink:href="#BitstreamVeraSans-Roman-2e"/>
       <use x="95.41015625" xlink:href="#BitstreamVeraSans-Roman-32"/>
      </g>
     </g>
    </g>
    <g id="ytick_4">
     <g id="line2d_5">
      <g>
       <use style="stroke:#000000;stroke-width:0.5;" x="40.8828125" xlink:href="#m728421d6d4" y="246.53841214"/>
      </g>
     </g>
     <g id="text_5">
      <!-- 0.3 -->
      <defs>
       <path d="
M40.5781 39.3125
Q47.6562 37.7969 51.625 33
Q55.6094 28.2188 55.6094 21.1875
Q55.6094 10.4062 48.1875 4.48438
Q40.7656 -1.42188 27.0938 -1.42188
Q22.5156 -1.42188 17.6562 -0.515625
Q12.7969 0.390625 7.625 2.20312
L7.625 11.7188
Q11.7188 9.32812 16.5938 8.10938
Q21.4844 6.89062 26.8125 6.89062
Q36.0781 6.89062 40.9375 10.5469
Q45.7969 14.2031 45.7969 21.1875
Q45.7969 27.6406 41.2812 31.2656
Q36.7656 34.9062 28.7188 34.9062
L20.2188 34.9062
L20.2188 43.0156
L29.1094 43.0156
Q36.375 43.0156 40.2344 45.9219
Q44.0938 48.8281 44.0938 54.2969
Q44.0938 59.9062 40.1094 62.9062
Q36.1406 65.9219 28.7188 65.9219
Q24.6562 65.9219 20.0156 65.0312
Q15.375 64.1562 9.8125 62.3125
L9.8125 71.0938
Q15.4375 72.6562 20.3438 73.4375
Q25.25 74.2188 29.5938 74.2188
Q40.8281 74.2188 47.3594 69.1094
Q53.9062 64.0156 53.9062 55.3281
Q53.9062 49.2656 50.4375 45.0938
Q46.9688 40.9219 40.5781 39.3125" id="BitstreamVeraSans-Roman-33"/>
      </defs>
      <g transform="translate(22.440625 249.29778714)scale(0.1 -0.1)">
       <use xlink:href="#BitstreamVeraSans-Roman-30"/>
       <use x="63.623046875" xlink:href="#BitstreamVeraSans-Roman-2e"/>
       <use x="95.41015625" xlink:href="#BitstreamVeraSans-Roman-33"/>
      </g>
     </g>
    </g>
    <g id="ytick_5">
     <g id="line2d_6">
      <g>
       <use style="stroke:#000000;stroke-width:0.5;" x="40.8828125" xlink:href="#m728421d6d4" y="136.66348043"/>
      </g>
     </g>
     <g id="text_6">
      <!-- 0.4 -->
      <defs>
       <path d="
M37.7969 64.3125
L12.8906 25.3906
L37.7969 25.3906
z

M35.2031 72.9062
L47.6094 72.9062
L47.6094 25.3906
L58.0156 25.3906
L58.0156 17.1875
L47.6094 17.1875
L47.6094 0
L37.7969 0
L37.7969 17.1875
L4.89062 17.1875
L4.89062 26.7031
z
" id="BitstreamVeraSans-Roman-34"/>
      </defs>
      <g transform="translate(22.2 139.42285543)scale(0.1 -0.1)">
       <use xlink:href="#BitstreamVeraSans-Roman-30"/>
       <use x="63.623046875" xlink:href="#BitstreamVeraSans-Roman-2e"/>
       <use x="95.41015625" xlink:href="#BitstreamVeraSans-Roman-34"/>
      </g>
     </g>
    </g>
    <g id="ytick_6">
     <g id="line2d_7">
      <g>
       <use style="stroke:#000000;stroke-width:0.5;" x="40.8828125" xlink:href="#m728421d6d4" y="26.7885487195"/>
      </g>
     </g>
     <g id="text_7">
      <!-- 0.5 -->
      <defs>
       <path d="
M10.7969 72.9062
L49.5156 72.9062
L49.5156 64.5938
L19.8281 64.5938
L19.8281 46.7344
Q21.9688 47.4688 24.1094 47.8281
Q26.2656 48.1875 28.4219 48.1875
Q40.625 48.1875 47.75 41.5
Q54.8906 34.8125 54.8906 23.3906
Q54.8906 11.625 47.5625 5.09375
Q40.2344 -1.42188 26.9062 -1.42188
Q22.3125 -1.42188 17.5469 -0.640625
Q12.7969 0.140625 7.71875 1.70312
L7.71875 11.625
Q12.1094 9.23438 16.7969 8.0625
Q21.4844 6.89062 26.7031 6.89062
Q35.1562 6.89062 40.0781 11.3281
Q45.0156 15.7656 45.0156 23.3906
Q45.0156 31 40.0781 35.4375
Q35.1562 39.8906 26.7031 39.8906
Q22.75 39.8906 18.8125 39.0156
Q14.8906 38.1406 10.7969 36.2812
z
" id="BitstreamVeraSans-Roman-35"/>
      </defs>
      <g transform="translate(22.5125 29.5479237195)scale(0.1 -0.1)">
       <use xlink:href="#BitstreamVeraSans-Roman-30"/>
       <use x="63.623046875" xlink:href="#BitstreamVeraSans-Roman-2e"/>
       <use x="95.41015625" xlink:href="#BitstreamVeraSans-Roman-35"/>
      </g>
     </g>
    </g>
    <g id="text_8">
     <!-- | [V] -->
     <defs>
      <path d="
M21 76.4219
L21 -23.5781
L12.7031 -23.5781
L12.7031 76.4219
z
" id="BitstreamVeraSans-Roman-7c"/>
      <path d="
M28.6094 0
L0.78125 72.9062
L11.0781 72.9062
L34.1875 11.5312
L57.3281 72.9062
L67.5781 72.9062
L39.7969 0
z
" id="BitstreamVeraSans-Roman-56"/>
     </defs>
     <g transform="translate(14.8421875 310.48375)rotate(-90.0)scale(0.1 -0.1)">
      <use xlink:href="#BitstreamVeraSans-Roman-7c"/>
      <use x="33.69140625" xlink:href="#BitstreamVeraSans-Roman-20"/>
      <use x="65.478515625" xlink:href="#BitstreamVeraSans-Roman-5b"/>
      <use x="104.4921875" xlink:href="#BitstreamVeraSans-Roman-56"/>
      <use x="172.900390625" xlink:href="#BitstreamVeraSans-Roman-5d"/>
     </g>
    </g>
   </g>
   <g id="patch_3">
    <path d="
M40.8828 21.3181
L1156.88 21.3181" style="fill:none;"/>
   </g>
   <g id="patch_4">
    <path d="
M1156.88 579.318
L1156.88 21.3181" style="fill:none;"/>
   </g>
   <g id="patch_5">
    <path d="
M40.8828 579.318
L1156.88 579.318" style="fill:none;stroke:#000000;"/>
   </g>
   <g id="patch_6">
    <path d="
M40.8828 579.318
L40.8828 21.3181" style="fill:none;stroke:#000000;"/>
   </g>
   <g id="text_9">
    <!-- 5TH ORDER 1KHZ BUTTERWORTH FILTER -->
    <defs>
     <path d="
M39.4062 66.2188
Q28.6562 66.2188 22.3281 58.2031
Q16.0156 50.2031 16.0156 36.375
Q16.0156 22.6094 22.3281 14.5938
Q28.6562 6.59375 39.4062 6.59375
Q50.1406 6.59375 56.4219 14.5938
Q62.7031 22.6094 62.7031 36.375
Q62.7031 50.2031 56.4219 58.2031
Q50.1406 66.2188 39.4062 66.2188
M39.4062 74.2188
Q54.7344 74.2188 63.9062 63.9375
Q73.0938 53.6562 73.0938 36.375
Q73.0938 19.1406 63.9062 8.85938
Q54.7344 -1.42188 39.4062 -1.42188
Q24.0312 -1.42188 14.8125 8.82812
Q5.60938 19.0938 5.60938 36.375
Q5.60938 53.6562 14.8125 63.9375
Q24.0312 74.2188 39.4062 74.2188" id="BitstreamVeraSans-Roman-4f"/>
     <path d="
M9.8125 72.9062
L19.6719 72.9062
L19.6719 8.29688
L55.1719 8.29688
L55.1719 0
L9.8125 0
z
" id="BitstreamVeraSans-Roman-4c"/>
     <path d="
M9.8125 72.9062
L19.6719 72.9062
L19.6719 42.0938
L52.3906 72.9062
L65.0938 72.9062
L28.9062 38.9219
L67.6719 0
L54.6875 0
L19.6719 35.1094
L19.6719 0
L9.8125 0
z
" id="BitstreamVeraSans-Roman-4b"/>
     <path d="
M5.60938 72.9062
L62.8906 72.9062
L62.8906 65.375
L16.7969 8.29688
L64.0156 8.29688
L64.0156 0
L4.5 0
L4.5 7.51562
L50.5938 64.5938
L5.60938 64.5938
z
" id="BitstreamVeraSans-Roman-5a"/>
     <path d="
M9.8125 72.9062
L55.9062 72.9062
L55.9062 64.5938
L19.6719 64.5938
L19.6719 43.0156
L54.3906 43.0156
L54.3906 34.7188
L19.6719 34.7188
L19.6719 8.29688
L56.7812 8.29688
L56.7812 0
L9.8125 0
z
" id="BitstreamVeraSans-Roman-45"/>
     <path d="
M9.8125 72.9062
L51.7031 72.9062
L51.7031 64.5938
L19.6719 64.5938
L19.6719 43.1094
L48.5781 43.1094
L48.5781 34.8125
L19.6719 34.8125
L19.6719 0
L9.8125 0
z
" id="BitstreamVeraSans-Roman-46"/>
     <path d="
M44.3906 34.1875
Q47.5625 33.1094 50.5625 29.5938
Q53.5625 26.0781 56.5938 19.9219
L66.6094 0
L56 0
L46.6875 18.7031
Q43.0625 26.0312 39.6719 28.4219
Q36.2812 30.8125 30.4219 30.8125
L19.6719 30.8125
L19.6719 0
L9.8125 0
L9.8125 72.9062
L32.0781 72.9062
Q44.5781 72.9062 50.7344 67.6719
Q56.8906 62.4531 56.8906 51.9062
Q56.8906 45.0156 53.6875 40.4688
Q50.4844 35.9375 44.3906 34.1875
M19.6719 64.7969
L19.6719 38.9219
L32.0781 38.9219
Q39.2031 38.9219 42.8438 42.2188
Q46.4844 45.5156 46.4844 51.9062
Q46.4844 58.2969 42.8438 61.5469
Q39.2031 64.7969 32.0781 64.7969
z
" id="BitstreamVeraSans-Roman-52"/>
     <path d="
M19.6719 64.7969
L19.6719 8.10938
L31.5938 8.10938
Q46.6875 8.10938 53.6875 14.9375
Q60.6875 21.7812 60.6875 36.5312
Q60.6875 51.1719 53.6875 57.9844
Q46.6875 64.7969 31.5938 64.7969
z

M9.8125 72.9062
L30.0781 72.9062
Q51.2656 72.9062 61.1719 64.0938
Q71.0938 55.2812 71.0938 36.5312
Q71.0938 17.6719 61.125 8.82812
Q51.1719 0 30.0781 0
L9.8125 0
z
" id="BitstreamVeraSans-Roman-44"/>
     <path d="
M-0.296875 72.9062
L61.375 72.9062
L61.375 64.5938
L35.5 64.5938
L35.5 0
L25.5938 0
L25.5938 64.5938
L-0.296875 64.5938
z
" id="BitstreamVeraSans-Roman-54"/>
     <path d="
M19.6719 34.8125
L19.6719 8.10938
L35.5 8.10938
Q43.4531 8.10938 47.2812 11.4062
Q51.125 14.7031 51.125 21.4844
Q51.125 28.3281 47.2812 31.5625
Q43.4531 34.8125 35.5 34.8125
z

M19.6719 64.7969
L19.6719 42.8281
L34.2812 42.8281
Q41.5 42.8281 45.0312 45.5312
Q48.5781 48.25 48.5781 53.8125
Q48.5781 59.3281 45.0312 62.0625
Q41.5 64.7969 34.2812 64.7969
z

M9.8125 72.9062
L35.0156 72.9062
Q46.2969 72.9062 52.3906 68.2188
Q58.5 63.5312 58.5 54.8906
Q58.5 48.1875 55.375 44.2344
Q52.25 40.2812 46.1875 39.3125
Q53.4688 37.75 57.5 32.7812
Q61.5312 27.8281 61.5312 20.4062
Q61.5312 10.6406 54.8906 5.3125
Q48.25 0 35.9844 0
L9.8125 0
z
" id="BitstreamVeraSans-Roman-42"/>
     <path d="
M3.32812 72.9062
L13.2812 72.9062
L28.6094 11.2812
L43.8906 72.9062
L54.9844 72.9062
L70.3125 11.2812
L85.5938 72.9062
L95.6094 72.9062
L77.2969 0
L64.8906 0
L49.5156 63.2812
L33.9844 0
L21.5781 0
z
" id="BitstreamVeraSans-Roman-57"/>
     <path d="
M8.6875 72.9062
L18.6094 72.9062
L18.6094 28.6094
Q18.6094 16.8906 22.8438 11.7344
Q27.0938 6.59375 36.625 6.59375
Q46.0938 6.59375 50.3438 11.7344
Q54.5938 16.8906 54.5938 28.6094
L54.5938 72.9062
L64.5 72.9062
L64.5 27.3906
Q64.5 13.1406 57.4375 5.85938
Q50.3906 -1.42188 36.625 -1.42188
Q22.7969 -1.42188 15.7344 5.85938
Q8.6875 13.1406 8.6875 27.3906
z
" id="BitstreamVeraSans-Roman-55"/>
     <path d="
M9.8125 72.9062
L19.6719 72.9062
L19.6719 0
L9.8125 0
z
" id="BitstreamVeraSans-Roman-49"/>
     <path d="
M9.8125 72.9062
L19.6719 72.9062
L19.6719 43.0156
L55.5156 43.0156
L55.5156 72.9062
L65.375 72.9062
L65.375 0
L55.5156 0
L55.5156 34.7188
L19.6719 34.7188
L19.6719 0
L9.8125 0
z
" id="BitstreamVeraSans-Roman-48"/>
    </defs>
    <g transform="translate(476.2034375 16.318125)scale(0.12 -0.12)">
     <use xlink:href="#BitstreamVeraSans-Roman-35"/>
     <use x="63.623046875" xlink:href="#BitstreamVeraSans-Roman-54"/>
     <use x="124.70703125" xlink:href="#BitstreamVeraSans-Roman-48"/>
     <use x="199.90234375" xlink:href="#BitstreamVeraSans-Roman-20"/>
     <use x="231.689453125" xlink:href="#BitstreamVeraSans-Roman-4f"/>
     <use x="310.400390625" xlink:href="#BitstreamVeraSans-Roman-52"/>
     <use x="379.8828125" xlink:href="#BitstreamVeraSans-Roman-44"/>
     <use x="456.884765625" xlink:href="#BitstreamVeraSans-Roman-45"/>
     <use x="520.068359375" xlink:href="#BitstreamVeraSans-Roman-52"/>
     <use x="589.55078125" xlink:href="#BitstreamVeraSans-Roman-20"/>
     <use x="621.337890625" xlink:href="#BitstreamVeraSans-Roman-31"/>
     <use x="684.9609375" xlink:href="#BitstreamVeraSans-Roman-4b"/>
     <use x="750.537109375" xlink:href="#BitstreamVeraSans-Roman-48"/>
     <use x="825.732421875" xlink:href="#BitstreamVeraSans-Roman-5a"/>
     <use x="894.23828125" xlink:href="#BitstreamVeraSans-Roman-20"/>
     <use x="926.025390625" xlink:href="#BitstreamVeraSans-Roman-42"/>
     <use x="994.62890625" xlink:href="#BitstreamVeraSans-Roman-55"/>
     <use x="1067.82226562" xlink:href="#BitstreamVeraSans-Roman-54"/>
     <use x="1127.15625" xlink:href="#BitstreamVeraSans-Roman-54"/>
     <use x="1188.24023438" xlink:href="#BitstreamVeraSans-Roman-45"/>
     <use x="1251.42382812" xlink:href="#BitstreamVeraSans-Roman-52"/>
     <use x="1316.90625" xlink:href="#BitstreamVeraSans-Roman-57"/>
     <use x="1415.78320312" xlink:href="#BitstreamVeraSans-Roman-4f"/>
     <use x="1494.49414062" xlink:href="#BitstreamVeraSans-Roman-52"/>
     <use x="1556.7265625" xlink:href="#BitstreamVeraSans-Roman-54"/>
     <use x="1617.81054688" xlink:href="#BitstreamVeraSans-Roman-48"/>
     <use x="1693.00585938" xlink:href="#BitstreamVeraSans-Roman-20"/>
     <use x="1724.79296875" xlink:href="#BitstreamVeraSans-Roman-46"/>
     <use x="1782.3125" xlink:href="#BitstreamVeraSans-Roman-49"/>
     <use x="1811.8046875" xlink:href="#BitstreamVeraSans-Roman-4c"/>
     <use x="1853.76757812" xlink:href="#BitstreamVeraSans-Roman-54"/>
     <use x="1914.8515625" xlink:href="#BitstreamVeraSans-Roman-45"/>
     <use x="1978.03515625" xlink:href="#BitstreamVeraSans-Roman-52"/>
    </g>
   </g>
   <g id="legend_1">
    <g id="patch_7">
     <path d="
M1047.62 48.9181
L1150.88 48.9181
L1150.88 27.3181
L1047.62 27.3181
L1047.62 48.9181
z
" style="fill:#ffffff;stroke:#000000;"/>
    </g>
    <g id="line2d_8">
     <path d="
M1056.02 37.0887
L1072.82 37.0887" style="fill:none;stroke:#0000ff;stroke-linecap:square;stroke-width:1.25;"/>
    </g>
    <g id="line2d_9">
     <g>
      <use style="fill:#ffffff;stroke:#0000ff;stroke-width:1.25;" x="1056.0246875" xlink:href="#mf17b82e932" y="37.08875"/>
      <use style="fill:#ffffff;stroke:#0000ff;stroke-width:1.25;" x="1072.8246875" xlink:href="#mf17b82e932" y="37.08875"/>
     </g>
    </g>
    <g id="text_10">
     <!-- |Vn8| (AC) -->
     <defs>
      <path d="
M54.8906 33.0156
L54.8906 0
L45.9062 0
L45.9062 32.7188
Q45.9062 40.4844 42.875 44.3281
Q39.8438 48.1875 33.7969 48.1875
Q26.5156 48.1875 22.3125 43.5469
Q18.1094 38.9219 18.1094 30.9062
L18.1094 0
L9.07812 0
L9.07812 54.6875
L18.1094 54.6875
L18.1094 46.1875
Q21.3438 51.125 25.7031 53.5625
Q30.0781 56 35.7969 56
Q45.2188 56 50.0469 50.1719
Q54.8906 44.3438 54.8906 33.0156" id="BitstreamVeraSans-Roman-6e"/>
      <path d="
M31 75.875
Q24.4688 64.6562 21.2812 53.6562
Q18.1094 42.6719 18.1094 31.3906
Q18.1094 20.125 21.3125 9.0625
Q24.5156 -2 31 -13.1875
L23.1875 -13.1875
Q15.875 -1.70312 12.2344 9.375
Q8.59375 20.4531 8.59375 31.3906
Q8.59375 42.2812 12.2031 53.3125
Q15.8281 64.3594 23.1875 75.875
z
" id="BitstreamVeraSans-Roman-28"/>
      <path d="
M31.7812 34.625
Q24.75 34.625 20.7188 30.8594
Q16.7031 27.0938 16.7031 20.5156
Q16.7031 13.9219 20.7188 10.1562
Q24.75 6.39062 31.7812 6.39062
Q38.8125 6.39062 42.8594 10.1719
Q46.9219 13.9688 46.9219 20.5156
Q46.9219 27.0938 42.8906 30.8594
Q38.875 34.625 31.7812 34.625
M21.9219 38.8125
Q15.5781 40.375 12.0312 44.7188
Q8.5 49.0781 8.5 55.3281
Q8.5 64.0625 14.7188 69.1406
Q20.9531 74.2188 31.7812 74.2188
Q42.6719 74.2188 48.875 69.1406
Q55.0781 64.0625 55.0781 55.3281
Q55.0781 49.0781 51.5312 44.7188
Q48 40.375 41.7031 38.8125
Q48.8281 37.1562 52.7969 32.3125
Q56.7812 27.4844 56.7812 20.5156
Q56.7812 9.90625 50.3125 4.23438
Q43.8438 -1.42188 31.7812 -1.42188
Q19.7344 -1.42188 13.25 4.23438
Q6.78125 9.90625 6.78125 20.5156
Q6.78125 27.4844 10.7812 32.3125
Q14.7969 37.1562 21.9219 38.8125
M18.3125 54.3906
Q18.3125 48.7344 21.8438 45.5625
Q25.3906 42.3906 31.7812 42.3906
Q38.1406 42.3906 41.7188 45.5625
Q45.3125 48.7344 45.3125 54.3906
Q45.3125 60.0625 41.7188 63.2344
Q38.1406 66.4062 31.7812 66.4062
Q25.3906 66.4062 21.8438 63.2344
Q18.3125 60.0625 18.3125 54.3906" id="BitstreamVeraSans-Roman-38"/>
      <path d="
M8.01562 75.875
L15.8281 75.875
Q23.1406 64.3594 26.7812 53.3125
Q30.4219 42.2812 30.4219 31.3906
Q30.4219 20.4531 26.7812 9.375
Q23.1406 -1.70312 15.8281 -13.1875
L8.01562 -13.1875
Q14.5 -2 17.7031 9.0625
Q20.9062 20.125 20.9062 31.3906
Q20.9062 42.6719 17.7031 53.6562
Q14.5 64.6562 8.01562 75.875" id="BitstreamVeraSans-Roman-29"/>
      <path d="
M64.4062 67.2812
L64.4062 56.8906
Q59.4219 61.5312 53.7812 63.8125
Q48.1406 66.1094 41.7969 66.1094
Q29.2969 66.1094 22.6562 58.4688
Q16.0156 50.8281 16.0156 36.375
Q16.0156 21.9688 22.6562 14.3281
Q29.2969 6.6875 41.7969 6.6875
Q48.1406 6.6875 53.7812 8.98438
Q59.4219 11.2812 64.4062 15.9219
L64.4062 5.60938
Q59.2344 2.09375 53.4375 0.328125
Q47.6562 -1.42188 41.2188 -1.42188
Q24.6562 -1.42188 15.125 8.70312
Q5.60938 18.8438 5.60938 36.375
Q5.60938 53.9531 15.125 64.0781
Q24.6562 74.2188 41.2188 74.2188
Q47.75 74.2188 53.5312 72.4844
Q59.3281 70.75 64.4062 67.2812" id="BitstreamVeraSans-Roman-43"/>
      <path d="
M34.1875 63.1875
L20.7969 26.9062
L47.6094 26.9062
z

M28.6094 72.9062
L39.7969 72.9062
L67.5781 0
L57.3281 0
L50.6875 18.7031
L17.8281 18.7031
L11.1875 0
L0.78125 0
z
" id="BitstreamVeraSans-Roman-41"/>
     </defs>
     <g transform="translate(1086.0246875 41.28875)scale(0.12 -0.12)">
      <use xlink:href="#BitstreamVeraSans-Roman-7c"/>
      <use x="33.69140625" xlink:href="#BitstreamVeraSans-Roman-56"/>
      <use x="102.099609375" xlink:href="#BitstreamVeraSans-Roman-6e"/>
      <use x="165.478515625" xlink:href="#BitstreamVeraSans-Roman-38"/>
      <use x="229.1015625" xlink:href="#BitstreamVeraSans-Roman-7c"/>
      <use x="262.79296875" xlink:href="#BitstreamVeraSans-Roman-20"/>
      <use x="294.580078125" xlink:href="#BitstreamVeraSans-Roman-28"/>
      <use x="333.59375" xlink:href="#BitstreamVeraSans-Roman-41"/>
      <use x="400.251953125" xlink:href="#BitstreamVeraSans-Roman-43"/>
      <use x="470.076171875" xlink:href="#BitstreamVeraSans-Roman-29"/>
     </g>
    </g>
   </g>
  </g>
 </g>
 <defs>
  <clipPath id="p7926581f17">
   <rect height="558.0" width="1116.0" x="40.8828125" y="21.318125"/>
  </clipPath>
 </defs>
</svg>
