<?xml version="1.0" encoding="utf-8" standalone="no"?>
<!DOCTYPE svg PUBLIC "-//W3C//DTD SVG 1.1//EN"
  "http://www.w3.org/Graphics/SVG/1.1/DTD/svg11.dtd">
<!-- Created with matplotlib (http://matplotlib.org/) -->
<svg height="576pt" version="1.1" viewBox="0 0 931 576" width="931pt" xmlns="http://www.w3.org/2000/svg" xmlns:xlink="http://www.w3.org/1999/xlink">
 <defs>
  <style type="text/css">
*{stroke-linecap:butt;stroke-linejoin:round;}
  </style>
 </defs>
 <g id="figure_1">
  <g id="patch_1">
   <path d="
M0 576
L931.68 576
L931.68 0
L0 0
z
" style="fill:#ffffff;"/>
  </g>
  <g id="axes_1">
   <g id="patch_2">
    <path d="
M116.46 504
L838.512 504
L838.512 57.6
L116.46 57.6
L116.46 504" style="fill:none;"/>
   </g>
   <g id="matplotlib.axis_1">
    <g id="xtick_1">
     <g id="line2d_1">
      <path clip-path="url(#p8b3cb8134f)" d="
M482.902 504
L482.902 57.6" style="fill:none;stroke:#000000;stroke-dasharray:1.000000,3.000000;stroke-dashoffset:0.0;stroke-width:0.5;"/>
     </g>
     <g id="line2d_2">
      <defs>
       <path d="
M0 0
L0 0" id="m8bc147ca23" style="stroke:#555555;stroke-width:0.5;"/>
      </defs>
      <g>
       <use style="fill:#555555;stroke:#555555;stroke-width:0.5;" x="482.90220265" xlink:href="#m8bc147ca23" y="504.0"/>
      </g>
     </g>
     <g id="text_1">
      <!-- $\mathdefault{10^{3}}$ -->
      <defs>
       <path d="
M40.5781 39.3125
Q47.6562 37.7969 51.625 33
Q55.6094 28.2188 55.6094 21.1875
Q55.6094 10.4062 48.1875 4.48438
Q40.7656 -1.42188 27.0938 -1.42188
Q22.5156 -1.42188 17.6562 -0.515625
Q12.7969 0.390625 7.625 2.20312
L7.625 11.7188
Q11.7188 9.32812 16.5938 8.10938
Q21.4844 6.89062 26.8125 6.89062
Q36.0781 6.89062 40.9375 10.5469
Q45.7969 14.2031 45.7969 21.1875
Q45.7969 27.6406 41.2812 31.2656
Q36.7656 34.9062 28.7188 34.9062
L20.2188 34.9062
L20.2188 43.0156
L29.1094 43.0156
Q36.375 43.0156 40.2344 45.9219
Q44.0938 48.8281 44.0938 54.2969
Q44.0938 59.9062 40.1094 62.9062
Q36.1406 65.9219 28.7188 65.9219
Q24.6562 65.9219 20.0156 65.0312
Q15.375 64.1562 9.8125 62.3125
L9.8125 71.0938
Q15.4375 72.6562 20.3438 73.4375
Q25.25 74.2188 29.5938 74.2188
Q40.8281 74.2188 47.3594 69.1094
Q53.9062 64.0156 53.9062 55.3281
Q53.9062 49.2656 50.4375 45.0938
Q46.9688 40.9219 40.5781 39.3125" id="BitstreamVeraSans-Roman-33"/>
       <path d="
M31.7812 66.4062
Q24.1719 66.4062 20.3281 58.9062
Q16.5 51.4219 16.5 36.375
Q16.5 21.3906 20.3281 13.8906
Q24.1719 6.39062 31.7812 6.39062
Q39.4531 6.39062 43.2812 13.8906
Q47.125 21.3906 47.125 36.375
Q47.125 51.4219 43.2812 58.9062
Q39.4531 66.4062 31.7812 66.4062
M31.7812 74.2188
Q44.0469 74.2188 50.5156 64.5156
Q56.9844 54.8281 56.9844 36.375
Q56.9844 17.9688 50.5156 8.26562
Q44.0469 -1.42188 31.7812 -1.42188
Q19.5312 -1.42188 13.0625 8.26562
Q6.59375 17.9688 6.59375 36.375
Q6.59375 54.8281 13.0625 64.5156
Q19.5312 74.2188 31.7812 74.2188" id="BitstreamVeraSans-Roman-30"/>
       <path d="
M12.4062 8.29688
L28.5156 8.29688
L28.5156 63.9219
L10.9844 60.4062
L10.9844 69.3906
L28.4219 72.9062
L38.2812 72.9062
L38.2812 8.29688
L54.3906 8.29688
L54.3906 0
L12.4062 0
z
" id="BitstreamVeraSans-Roman-31"/>
      </defs>
      <g style="fill:#555555;" transform="translate(472.28720265 519.48234375)scale(0.11 -0.11)">
       <use transform="translate(0.0 0.546875)" xlink:href="#BitstreamVeraSans-Roman-31"/>
       <use transform="translate(63.623046875 0.546875)" xlink:href="#BitstreamVeraSans-Roman-30"/>
       <use transform="translate(127.24609375 53.046875)scale(0.7)" xlink:href="#BitstreamVeraSans-Roman-33"/>
      </g>
     </g>
    </g>
    <g id="text_2">
     <!-- f [Hz] -->
     <defs>
      <path id="BitstreamVeraSans-Roman-20"/>
      <path d="
M8.59375 75.9844
L29.2969 75.9844
L29.2969 69
L17.5781 69
L17.5781 -6.20312
L29.2969 -6.20312
L29.2969 -13.1875
L8.59375 -13.1875
z
" id="BitstreamVeraSans-Roman-5b"/>
      <path d="
M30.4219 75.9844
L30.4219 -13.1875
L9.71875 -13.1875
L9.71875 -6.20312
L21.3906 -6.20312
L21.3906 69
L9.71875 69
L9.71875 75.9844
z
" id="BitstreamVeraSans-Roman-5d"/>
      <path d="
M5.51562 54.6875
L48.1875 54.6875
L48.1875 46.4844
L14.4062 7.17188
L48.1875 7.17188
L48.1875 0
L4.29688 0
L4.29688 8.20312
L38.0938 47.5156
L5.51562 47.5156
z
" id="BitstreamVeraSans-Roman-7a"/>
      <path d="
M37.1094 75.9844
L37.1094 68.5
L28.5156 68.5
Q23.6875 68.5 21.7969 66.5469
Q19.9219 64.5938 19.9219 59.5156
L19.9219 54.6875
L34.7188 54.6875
L34.7188 47.7031
L19.9219 47.7031
L19.9219 0
L10.8906 0
L10.8906 47.7031
L2.29688 47.7031
L2.29688 54.6875
L10.8906 54.6875
L10.8906 58.5
Q10.8906 67.625 15.1406 71.7969
Q19.3906 75.9844 28.6094 75.9844
z
" id="BitstreamVeraSans-Roman-66"/>
      <path d="
M9.8125 72.9062
L19.6719 72.9062
L19.6719 43.0156
L55.5156 43.0156
L55.5156 72.9062
L65.375 72.9062
L65.375 0
L55.5156 0
L55.5156 34.7188
L19.6719 34.7188
L19.6719 0
L9.8125 0
z
" id="BitstreamVeraSans-Roman-48"/>
     </defs>
     <g style="fill:#555555;" transform="translate(462.959984375 535.12828125)scale(0.11 -0.11)">
      <use xlink:href="#BitstreamVeraSans-Roman-66"/>
      <use x="35.205078125" xlink:href="#BitstreamVeraSans-Roman-20"/>
      <use x="66.9921875" xlink:href="#BitstreamVeraSans-Roman-5b"/>
      <use x="106.005859375" xlink:href="#BitstreamVeraSans-Roman-48"/>
      <use x="181.201171875" xlink:href="#BitstreamVeraSans-Roman-7a"/>
      <use x="233.69140625" xlink:href="#BitstreamVeraSans-Roman-5d"/>
     </g>
    </g>
   </g>
   <g id="matplotlib.axis_2">
    <g id="ytick_1">
     <g id="line2d_3">
      <path clip-path="url(#p8b3cb8134f)" d="
M116.46 501.298
L838.512 501.298" style="fill:none;stroke:#000000;stroke-dasharray:1.000000,3.000000;stroke-dashoffset:0.0;stroke-width:0.5;"/>
     </g>
     <g id="line2d_4">
      <g>
       <use style="fill:#555555;stroke:#555555;stroke-width:0.5;" x="116.46" xlink:href="#m8bc147ca23" y="501.298173913"/>
      </g>
     </g>
     <g id="text_3">
      <!-- 0.0 -->
      <defs>
       <path d="
M10.6875 12.4062
L21 12.4062
L21 0
L10.6875 0
z
" id="BitstreamVeraSans-Roman-2e"/>
      </defs>
      <g style="fill:#555555;" transform="translate(94.42234375 504.333486413)scale(0.11 -0.11)">
       <use xlink:href="#BitstreamVeraSans-Roman-30"/>
       <use x="63.623046875" xlink:href="#BitstreamVeraSans-Roman-2e"/>
       <use x="95.41015625" xlink:href="#BitstreamVeraSans-Roman-30"/>
      </g>
     </g>
    </g>
    <g id="ytick_2">
     <g id="line2d_5">
      <path clip-path="url(#p8b3cb8134f)" d="
M116.46 413.434
L838.512 413.434" style="fill:none;stroke:#000000;stroke-dasharray:1.000000,3.000000;stroke-dashoffset:0.0;stroke-width:0.5;"/>
     </g>
     <g id="line2d_6">
      <g>
       <use style="fill:#555555;stroke:#555555;stroke-width:0.5;" x="116.46" xlink:href="#m8bc147ca23" y="413.433806937"/>
      </g>
     </g>
     <g id="text_4">
      <!-- 0.1 -->
      <g style="fill:#555555;" transform="translate(94.70765625 416.469119437)scale(0.11 -0.11)">
       <use xlink:href="#BitstreamVeraSans-Roman-30"/>
       <use x="63.623046875" xlink:href="#BitstreamVeraSans-Roman-2e"/>
       <use x="95.41015625" xlink:href="#BitstreamVeraSans-Roman-31"/>
      </g>
     </g>
    </g>
    <g id="ytick_3">
     <g id="line2d_7">
      <path clip-path="url(#p8b3cb8134f)" d="
M116.46 325.569
L838.512 325.569" style="fill:none;stroke:#000000;stroke-dasharray:1.000000,3.000000;stroke-dashoffset:0.0;stroke-width:0.5;"/>
     </g>
     <g id="line2d_8">
      <g>
       <use style="fill:#555555;stroke:#555555;stroke-width:0.5;" x="116.46" xlink:href="#m8bc147ca23" y="325.56943996"/>
      </g>
     </g>
     <g id="text_5">
      <!-- 0.2 -->
      <defs>
       <path d="
M19.1875 8.29688
L53.6094 8.29688
L53.6094 0
L7.32812 0
L7.32812 8.29688
Q12.9375 14.1094 22.625 23.8906
Q32.3281 33.6875 34.8125 36.5312
Q39.5469 41.8438 41.4219 45.5312
Q43.3125 49.2188 43.3125 52.7812
Q43.3125 58.5938 39.2344 62.25
Q35.1562 65.9219 28.6094 65.9219
Q23.9688 65.9219 18.8125 64.3125
Q13.6719 62.7031 7.8125 59.4219
L7.8125 69.3906
Q13.7656 71.7812 18.9375 73
Q24.125 74.2188 28.4219 74.2188
Q39.75 74.2188 46.4844 68.5469
Q53.2188 62.8906 53.2188 53.4219
Q53.2188 48.9219 51.5312 44.8906
Q49.8594 40.875 45.4062 35.4062
Q44.1875 33.9844 37.6406 27.2188
Q31.1094 20.4531 19.1875 8.29688" id="BitstreamVeraSans-Roman-32"/>
      </defs>
      <g style="fill:#555555;" transform="translate(94.79359375 328.60475246)scale(0.11 -0.11)">
       <use xlink:href="#BitstreamVeraSans-Roman-30"/>
       <use x="63.623046875" xlink:href="#BitstreamVeraSans-Roman-2e"/>
       <use x="95.41015625" xlink:href="#BitstreamVeraSans-Roman-32"/>
      </g>
     </g>
    </g>
    <g id="ytick_4">
     <g id="line2d_9">
      <path clip-path="url(#p8b3cb8134f)" d="
M116.46 237.705
L838.512 237.705" style="fill:none;stroke:#000000;stroke-dasharray:1.000000,3.000000;stroke-dashoffset:0.0;stroke-width:0.5;"/>
     </g>
     <g id="line2d_10">
      <g>
       <use style="fill:#555555;stroke:#555555;stroke-width:0.5;" x="116.46" xlink:href="#m8bc147ca23" y="237.705072983"/>
      </g>
     </g>
     <g id="text_6">
      <!-- 0.3 -->
      <g style="fill:#555555;" transform="translate(94.57359375 240.740385483)scale(0.11 -0.11)">
       <use xlink:href="#BitstreamVeraSans-Roman-30"/>
       <use x="63.623046875" xlink:href="#BitstreamVeraSans-Roman-2e"/>
       <use x="95.41015625" xlink:href="#BitstreamVeraSans-Roman-33"/>
      </g>
     </g>
    </g>
    <g id="ytick_5">
     <g id="line2d_11">
      <path clip-path="url(#p8b3cb8134f)" d="
M116.46 149.841
L838.512 149.841" style="fill:none;stroke:#000000;stroke-dasharray:1.000000,3.000000;stroke-dashoffset:0.0;stroke-width:0.5;"/>
     </g>
     <g id="line2d_12">
      <g>
       <use style="fill:#555555;stroke:#555555;stroke-width:0.5;" x="116.46" xlink:href="#m8bc147ca23" y="149.840706006"/>
      </g>
     </g>
     <g id="text_7">
      <!-- 0.4 -->
      <defs>
       <path d="
M37.7969 64.3125
L12.8906 25.3906
L37.7969 25.3906
z

M35.2031 72.9062
L47.6094 72.9062
L47.6094 25.3906
L58.0156 25.3906
L58.0156 17.1875
L47.6094 17.1875
L47.6094 0
L37.7969 0
L37.7969 17.1875
L4.89062 17.1875
L4.89062 26.7031
z
" id="BitstreamVeraSans-Roman-34"/>
      </defs>
      <g style="fill:#555555;" transform="translate(94.30890625 152.876018506)scale(0.11 -0.11)">
       <use xlink:href="#BitstreamVeraSans-Roman-30"/>
       <use x="63.623046875" xlink:href="#BitstreamVeraSans-Roman-2e"/>
       <use x="95.41015625" xlink:href="#BitstreamVeraSans-Roman-34"/>
      </g>
     </g>
    </g>
    <g id="ytick_6">
     <g id="line2d_13">
      <path clip-path="url(#p8b3cb8134f)" d="
M116.46 61.9763
L838.512 61.9763" style="fill:none;stroke:#000000;stroke-dasharray:1.000000,3.000000;stroke-dashoffset:0.0;stroke-width:0.5;"/>
     </g>
     <g id="line2d_14">
      <g>
       <use style="fill:#555555;stroke:#555555;stroke-width:0.5;" x="116.46" xlink:href="#m8bc147ca23" y="61.9763390289"/>
      </g>
     </g>
     <g id="text_8">
      <!-- 0.5 -->
      <defs>
       <path d="
M10.7969 72.9062
L49.5156 72.9062
L49.5156 64.5938
L19.8281 64.5938
L19.8281 46.7344
Q21.9688 47.4688 24.1094 47.8281
Q26.2656 48.1875 28.4219 48.1875
Q40.625 48.1875 47.75 41.5
Q54.8906 34.8125 54.8906 23.3906
Q54.8906 11.625 47.5625 5.09375
Q40.2344 -1.42188 26.9062 -1.42188
Q22.3125 -1.42188 17.5469 -0.640625
Q12.7969 0.140625 7.71875 1.70312
L7.71875 11.625
Q12.1094 9.23438 16.7969 8.0625
Q21.4844 6.89062 26.7031 6.89062
Q35.1562 6.89062 40.0781 11.3281
Q45.0156 15.7656 45.0156 23.3906
Q45.0156 31 40.0781 35.4375
Q35.1562 39.8906 26.7031 39.8906
Q22.75 39.8906 18.8125 39.0156
Q14.8906 38.1406 10.7969 36.2812
z
" id="BitstreamVeraSans-Roman-35"/>
      </defs>
      <g style="fill:#555555;" transform="translate(94.65265625 65.0116515289)scale(0.11 -0.11)">
       <use xlink:href="#BitstreamVeraSans-Roman-30"/>
       <use x="63.623046875" xlink:href="#BitstreamVeraSans-Roman-2e"/>
       <use x="95.41015625" xlink:href="#BitstreamVeraSans-Roman-35"/>
      </g>
     </g>
    </g>
    <g id="text_9">
     <!-- V [V] -->
     <defs>
      <path d="
M28.6094 0
L0.78125 72.9062
L11.0781 72.9062
L34.1875 11.5312
L57.3281 72.9062
L67.5781 72.9062
L39.7969 0
z
" id="BitstreamVeraSans-Roman-56"/>
     </defs>
     <g style="fill:#555555;" transform="translate(87.02125 293.89171875)rotate(-90.0)scale(0.11 -0.11)">
      <use xlink:href="#BitstreamVeraSans-Roman-56"/>
      <use x="68.408203125" xlink:href="#BitstreamVeraSans-Roman-20"/>
      <use x="100.1953125" xlink:href="#BitstreamVeraSans-Roman-5b"/>
      <use x="139.208984375" xlink:href="#BitstreamVeraSans-Roman-56"/>
      <use x="207.6171875" xlink:href="#BitstreamVeraSans-Roman-5d"/>
     </g>
    </g>
   </g>
   <g id="line2d_15">
    <path clip-path="url(#p8b3cb8134f)" d="
M116.46 499.624
L123.753 499.446
L131.047 499.246
L138.34 499.02
L145.634 498.762
L152.927 498.469
L160.221 498.135
L167.514 497.752
L174.808 497.311
L182.101 496.804
L189.395 496.217
L196.688 495.536
L203.981 494.742
L211.275 493.813
L218.568 492.722
L225.862 491.435
L233.155 489.909
L240.449 488.091
L247.742 485.914
L255.036 483.293
L262.329 480.119
L269.623 476.253
L276.916 471.513
L284.209 465.665
L291.503 458.401
L298.796 449.32
L306.09 437.898
L313.383 423.456
L320.677 405.14
L327.97 381.929
L335.264 352.741
L342.557 316.745
L349.851 274.027
L357.144 226.573
L364.437 178.89
L371.731 136.939
L379.024 105.211
L386.318 84.5307
L393.611 72.7053
L400.905 66.6499
L408.198 63.8355
L415.492 62.6448
L422.785 62.1896
L430.079 62.0351
L437.372 61.9898
L444.665 61.9788
L451.959 61.9768
L459.252 61.9765
L466.546 61.9765
L473.839 61.9765
L481.133 61.9765
L488.426 61.9765
L495.72 61.9765
L503.013 61.9765
L510.307 61.9765
L517.6 61.9773
L524.893 61.9823
L532.187 62.0057
L539.48 62.0928
L546.774 62.3674
L554.067 63.126
L561.361 65.0059
L568.654 69.237
L575.948 77.9039
L583.241 93.9258
L590.535 120.181
L597.828 157.54
L605.121 203.177
L612.415 251.442
L619.708 296.849
L627.002 336.199
L634.295 368.612
L641.589 394.583
L648.882 415.132
L656.176 431.331
L663.469 444.12
L670.763 454.26
L678.056 462.346
L685.349 468.836
L692.643 474.079
L699.936 478.343
L707.23 481.832
L714.523 484.706
L721.817 487.086
L729.11 489.068
L736.404 490.729
L743.697 492.126
L750.991 493.307
L758.284 494.31
L765.577 495.167
L772.871 495.9
L780.164 496.53
L787.458 497.075
L794.751 497.546
L802.045 497.956
L809.338 498.313
L816.632 498.625
L823.925 498.899
L831.219 499.14
L838.512 499.352" style="fill:none;stroke:#348abd;stroke-linecap:square;stroke-width:1.25;"/>
    <defs>
     <path d="
M0 3.5
C0.928211 3.5 1.81853 3.13122 2.47487 2.47487
C3.13122 1.81853 3.5 0.928211 3.5 0
C3.5 -0.928211 3.13122 -1.81853 2.47487 -2.47487
C1.81853 -3.13122 0.928211 -3.5 0 -3.5
C-0.928211 -3.5 -1.81853 -3.13122 -2.47487 -2.47487
C-3.13122 -1.81853 -3.5 -0.928211 -3.5 0
C-3.5 0.928211 -3.13122 1.81853 -2.47487 2.47487
C-1.81853 3.13122 -0.928211 3.5 0 3.5
z
" id="m08ac2dbe1b" style="stroke:#348abd;stroke-width:1.25;"/>
    </defs>
    <g clip-path="url(#p8b3cb8134f)">
     <use style="fill:#ffffff;stroke:#348abd;stroke-width:1.25;" x="116.46" xlink:href="#m08ac2dbe1b" y="499.623529412"/>
     <use style="fill:#ffffff;stroke:#348abd;stroke-width:1.25;" x="123.753454545" xlink:href="#m08ac2dbe1b" y="499.446387342"/>
     <use style="fill:#ffffff;stroke:#348abd;stroke-width:1.25;" x="131.046909091" xlink:href="#m08ac2dbe1b" y="499.246281911"/>
     <use style="fill:#ffffff;stroke:#348abd;stroke-width:1.25;" x="138.340363636" xlink:href="#m08ac2dbe1b" y="499.019664586"/>
     <use style="fill:#ffffff;stroke:#348abd;stroke-width:1.25;" x="145.633818182" xlink:href="#m08ac2dbe1b" y="498.762346235"/>
     <use style="fill:#ffffff;stroke:#348abd;stroke-width:1.25;" x="152.927272727" xlink:href="#m08ac2dbe1b" y="498.469364094"/>
     <use style="fill:#ffffff;stroke:#348abd;stroke-width:1.25;" x="160.220727273" xlink:href="#m08ac2dbe1b" y="498.13481735"/>
     <use style="fill:#ffffff;stroke:#348abd;stroke-width:1.25;" x="167.514181818" xlink:href="#m08ac2dbe1b" y="497.751663001"/>
     <use style="fill:#ffffff;stroke:#348abd;stroke-width:1.25;" x="174.807636364" xlink:href="#m08ac2dbe1b" y="497.311461198"/>
     <use style="fill:#ffffff;stroke:#348abd;stroke-width:1.25;" x="182.101090909" xlink:href="#m08ac2dbe1b" y="496.804056017"/>
     <use style="fill:#ffffff;stroke:#348abd;stroke-width:1.25;" x="189.394545455" xlink:href="#m08ac2dbe1b" y="496.217173222"/>
     <use style="fill:#ffffff;stroke:#348abd;stroke-width:1.25;" x="196.688" xlink:href="#m08ac2dbe1b" y="495.535910763"/>
     <use style="fill:#ffffff;stroke:#348abd;stroke-width:1.25;" x="203.981454545" xlink:href="#m08ac2dbe1b" y="494.742089829"/>
     <use style="fill:#ffffff;stroke:#348abd;stroke-width:1.25;" x="211.274909091" xlink:href="#m08ac2dbe1b" y="493.81342358"/>
     <use style="fill:#ffffff;stroke:#348abd;stroke-width:1.25;" x="218.568363636" xlink:href="#m08ac2dbe1b" y="492.722446086"/>
     <use style="fill:#ffffff;stroke:#348abd;stroke-width:1.25;" x="225.861818182" xlink:href="#m08ac2dbe1b" y="491.435123965"/>
     <use style="fill:#ffffff;stroke:#348abd;stroke-width:1.25;" x="233.155272727" xlink:href="#m08ac2dbe1b" y="489.909045723"/>
     <use style="fill:#ffffff;stroke:#348abd;stroke-width:1.25;" x="240.448727273" xlink:href="#m08ac2dbe1b" y="488.091045878"/>
     <use style="fill:#ffffff;stroke:#348abd;stroke-width:1.25;" x="247.742181818" xlink:href="#m08ac2dbe1b" y="485.914068737"/>
     <use style="fill:#ffffff;stroke:#348abd;stroke-width:1.25;" x="255.035636364" xlink:href="#m08ac2dbe1b" y="483.293005221"/>
     <use style="fill:#ffffff;stroke:#348abd;stroke-width:1.25;" x="262.329090909" xlink:href="#m08ac2dbe1b" y="480.119139352"/>
     <use style="fill:#ffffff;stroke:#348abd;stroke-width:1.25;" x="269.622545455" xlink:href="#m08ac2dbe1b" y="476.252713627"/>
     <use style="fill:#ffffff;stroke:#348abd;stroke-width:1.25;" x="276.916" xlink:href="#m08ac2dbe1b" y="471.512963764"/>
     <use style="fill:#ffffff;stroke:#348abd;stroke-width:1.25;" x="284.209454545" xlink:href="#m08ac2dbe1b" y="465.664799073"/>
     <use style="fill:#ffffff;stroke:#348abd;stroke-width:1.25;" x="291.502909091" xlink:href="#m08ac2dbe1b" y="458.401177485"/>
     <use style="fill:#ffffff;stroke:#348abd;stroke-width:1.25;" x="298.796363636" xlink:href="#m08ac2dbe1b" y="449.320326339"/>
     <use style="fill:#ffffff;stroke:#348abd;stroke-width:1.25;" x="306.089818182" xlink:href="#m08ac2dbe1b" y="437.897765795"/>
     <use style="fill:#ffffff;stroke:#348abd;stroke-width:1.25;" x="313.383272727" xlink:href="#m08ac2dbe1b" y="423.455751486"/>
     <use style="fill:#ffffff;stroke:#348abd;stroke-width:1.25;" x="320.676727273" xlink:href="#m08ac2dbe1b" y="405.139861244"/>
     <use style="fill:#ffffff;stroke:#348abd;stroke-width:1.25;" x="327.970181818" xlink:href="#m08ac2dbe1b" y="381.929211852"/>
     <use style="fill:#ffffff;stroke:#348abd;stroke-width:1.25;" x="335.263636364" xlink:href="#m08ac2dbe1b" y="352.741118438"/>
     <use style="fill:#ffffff;stroke:#348abd;stroke-width:1.25;" x="342.557090909" xlink:href="#m08ac2dbe1b" y="316.744758852"/>
     <use style="fill:#ffffff;stroke:#348abd;stroke-width:1.25;" x="349.850545455" xlink:href="#m08ac2dbe1b" y="274.026600903"/>
     <use style="fill:#ffffff;stroke:#348abd;stroke-width:1.25;" x="357.144" xlink:href="#m08ac2dbe1b" y="226.572672584"/>
     <use style="fill:#ffffff;stroke:#348abd;stroke-width:1.25;" x="364.437454545" xlink:href="#m08ac2dbe1b" y="178.890179433"/>
     <use style="fill:#ffffff;stroke:#348abd;stroke-width:1.25;" x="371.730909091" xlink:href="#m08ac2dbe1b" y="136.938710906"/>
     <use style="fill:#ffffff;stroke:#348abd;stroke-width:1.25;" x="379.024363636" xlink:href="#m08ac2dbe1b" y="105.21060954"/>
     <use style="fill:#ffffff;stroke:#348abd;stroke-width:1.25;" x="386.317818182" xlink:href="#m08ac2dbe1b" y="84.530655652"/>
     <use style="fill:#ffffff;stroke:#348abd;stroke-width:1.25;" x="393.611272727" xlink:href="#m08ac2dbe1b" y="72.7053110874"/>
     <use style="fill:#ffffff;stroke:#348abd;stroke-width:1.25;" x="400.904727273" xlink:href="#m08ac2dbe1b" y="66.6499186843"/>
     <use style="fill:#ffffff;stroke:#348abd;stroke-width:1.25;" x="408.198181818" xlink:href="#m08ac2dbe1b" y="63.835541807"/>
     <use style="fill:#ffffff;stroke:#348abd;stroke-width:1.25;" x="415.491636364" xlink:href="#m08ac2dbe1b" y="62.6448017713"/>
     <use style="fill:#ffffff;stroke:#348abd;stroke-width:1.25;" x="422.785090909" xlink:href="#m08ac2dbe1b" y="62.1895957163"/>
     <use style="fill:#ffffff;stroke:#348abd;stroke-width:1.25;" x="430.078545455" xlink:href="#m08ac2dbe1b" y="62.0350741843"/>
     <use style="fill:#ffffff;stroke:#348abd;stroke-width:1.25;" x="437.372" xlink:href="#m08ac2dbe1b" y="61.9898027865"/>
     <use style="fill:#ffffff;stroke:#348abd;stroke-width:1.25;" x="444.665454545" xlink:href="#m08ac2dbe1b" y="61.9788351923"/>
     <use style="fill:#ffffff;stroke:#348abd;stroke-width:1.25;" x="451.958909091" xlink:href="#m08ac2dbe1b" y="61.9767733815"/>
     <use style="fill:#ffffff;stroke:#348abd;stroke-width:1.25;" x="459.252363636" xlink:href="#m08ac2dbe1b" y="61.9764980266"/>
     <use style="fill:#ffffff;stroke:#348abd;stroke-width:1.25;" x="466.545818182" xlink:href="#m08ac2dbe1b" y="61.9764732661"/>
     <use style="fill:#ffffff;stroke:#348abd;stroke-width:1.25;" x="473.839272727" xlink:href="#m08ac2dbe1b" y="61.9764709857"/>
     <use style="fill:#ffffff;stroke:#348abd;stroke-width:1.25;" x="481.132727273" xlink:href="#m08ac2dbe1b" y="61.9764705882"/>
     <use style="fill:#ffffff;stroke:#348abd;stroke-width:1.25;" x="488.426181818" xlink:href="#m08ac2dbe1b" y="61.9764707052"/>
     <use style="fill:#ffffff;stroke:#348abd;stroke-width:1.25;" x="495.719636364" xlink:href="#m08ac2dbe1b" y="61.9764710246"/>
     <use style="fill:#ffffff;stroke:#348abd;stroke-width:1.25;" x="503.013090909" xlink:href="#m08ac2dbe1b" y="61.9764733949"/>
     <use style="fill:#ffffff;stroke:#348abd;stroke-width:1.25;" x="510.306545455" xlink:href="#m08ac2dbe1b" y="61.9765456141"/>
     <use style="fill:#ffffff;stroke:#348abd;stroke-width:1.25;" x="517.6" xlink:href="#m08ac2dbe1b" y="61.9773232005"/>
     <use style="fill:#ffffff;stroke:#348abd;stroke-width:1.25;" x="524.893454545" xlink:href="#m08ac2dbe1b" y="61.9823282807"/>
     <use style="fill:#ffffff;stroke:#348abd;stroke-width:1.25;" x="532.186909091" xlink:href="#m08ac2dbe1b" y="62.0056931288"/>
     <use style="fill:#ffffff;stroke:#348abd;stroke-width:1.25;" x="539.480363636" xlink:href="#m08ac2dbe1b" y="62.0928013624"/>
     <use style="fill:#ffffff;stroke:#348abd;stroke-width:1.25;" x="546.773818182" xlink:href="#m08ac2dbe1b" y="62.3673592813"/>
     <use style="fill:#ffffff;stroke:#348abd;stroke-width:1.25;" x="554.067272727" xlink:href="#m08ac2dbe1b" y="63.1259599948"/>
     <use style="fill:#ffffff;stroke:#348abd;stroke-width:1.25;" x="561.360727273" xlink:href="#m08ac2dbe1b" y="65.0059442839"/>
     <use style="fill:#ffffff;stroke:#348abd;stroke-width:1.25;" x="568.654181818" xlink:href="#m08ac2dbe1b" y="69.237011109"/>
     <use style="fill:#ffffff;stroke:#348abd;stroke-width:1.25;" x="575.947636364" xlink:href="#m08ac2dbe1b" y="77.9039318413"/>
     <use style="fill:#ffffff;stroke:#348abd;stroke-width:1.25;" x="583.241090909" xlink:href="#m08ac2dbe1b" y="93.9257661474"/>
     <use style="fill:#ffffff;stroke:#348abd;stroke-width:1.25;" x="590.534545455" xlink:href="#m08ac2dbe1b" y="120.181240993"/>
     <use style="fill:#ffffff;stroke:#348abd;stroke-width:1.25;" x="597.828" xlink:href="#m08ac2dbe1b" y="157.540231332"/>
     <use style="fill:#ffffff;stroke:#348abd;stroke-width:1.25;" x="605.121454545" xlink:href="#m08ac2dbe1b" y="203.17739235"/>
     <use style="fill:#ffffff;stroke:#348abd;stroke-width:1.25;" x="612.414909091" xlink:href="#m08ac2dbe1b" y="251.442201212"/>
     <use style="fill:#ffffff;stroke:#348abd;stroke-width:1.25;" x="619.708363636" xlink:href="#m08ac2dbe1b" y="296.84935769"/>
     <use style="fill:#ffffff;stroke:#348abd;stroke-width:1.25;" x="627.001818182" xlink:href="#m08ac2dbe1b" y="336.198715746"/>
     <use style="fill:#ffffff;stroke:#348abd;stroke-width:1.25;" x="634.295272727" xlink:href="#m08ac2dbe1b" y="368.611791165"/>
     <use style="fill:#ffffff;stroke:#348abd;stroke-width:1.25;" x="641.588727273" xlink:href="#m08ac2dbe1b" y="394.583488058"/>
     <use style="fill:#ffffff;stroke:#348abd;stroke-width:1.25;" x="648.882181818" xlink:href="#m08ac2dbe1b" y="415.132154456"/>
     <use style="fill:#ffffff;stroke:#348abd;stroke-width:1.25;" x="656.175636364" xlink:href="#m08ac2dbe1b" y="431.330898708"/>
     <use style="fill:#ffffff;stroke:#348abd;stroke-width:1.25;" x="663.469090909" xlink:href="#m08ac2dbe1b" y="444.119637978"/>
     <use style="fill:#ffffff;stroke:#348abd;stroke-width:1.25;" x="670.762545455" xlink:href="#m08ac2dbe1b" y="454.259738388"/>
     <use style="fill:#ffffff;stroke:#348abd;stroke-width:1.25;" x="678.056" xlink:href="#m08ac2dbe1b" y="462.346047559"/>
     <use style="fill:#ffffff;stroke:#348abd;stroke-width:1.25;" x="685.349454545" xlink:href="#m08ac2dbe1b" y="468.835916226"/>
     <use style="fill:#ffffff;stroke:#348abd;stroke-width:1.25;" x="692.642909091" xlink:href="#m08ac2dbe1b" y="474.079028053"/>
     <use style="fill:#ffffff;stroke:#348abd;stroke-width:1.25;" x="699.936363636" xlink:href="#m08ac2dbe1b" y="478.342781095"/>
     <use style="fill:#ffffff;stroke:#348abd;stroke-width:1.25;" x="707.229818182" xlink:href="#m08ac2dbe1b" y="481.832320917"/>
     <use style="fill:#ffffff;stroke:#348abd;stroke-width:1.25;" x="714.523272727" xlink:href="#m08ac2dbe1b" y="484.705819657"/>
     <use style="fill:#ffffff;stroke:#348abd;stroke-width:1.25;" x="721.816727273" xlink:href="#m08ac2dbe1b" y="487.085949879"/>
     <use style="fill:#ffffff;stroke:#348abd;stroke-width:1.25;" x="729.110181818" xlink:href="#m08ac2dbe1b" y="489.068451045"/>
     <use style="fill:#ffffff;stroke:#348abd;stroke-width:1.25;" x="736.403636364" xlink:href="#m08ac2dbe1b" y="490.728522436"/>
     <use style="fill:#ffffff;stroke:#348abd;stroke-width:1.25;" x="743.697090909" xlink:href="#m08ac2dbe1b" y="492.125606418"/>
     <use style="fill:#ffffff;stroke:#348abd;stroke-width:1.25;" x="750.990545455" xlink:href="#m08ac2dbe1b" y="493.306982898"/>
     <use style="fill:#ffffff;stroke:#348abd;stroke-width:1.25;" x="758.284" xlink:href="#m08ac2dbe1b" y="494.31048485"/>
     <use style="fill:#ffffff;stroke:#348abd;stroke-width:1.25;" x="765.577454545" xlink:href="#m08ac2dbe1b" y="495.1665618"/>
     <use style="fill:#ffffff;stroke:#348abd;stroke-width:1.25;" x="772.870909091" xlink:href="#m08ac2dbe1b" y="495.899857405"/>
     <use style="fill:#ffffff;stroke:#348abd;stroke-width:1.25;" x="780.164363636" xlink:href="#m08ac2dbe1b" y="496.530422912"/>
     <use style="fill:#ffffff;stroke:#348abd;stroke-width:1.25;" x="787.457818182" xlink:href="#m08ac2dbe1b" y="497.074656234"/>
     <use style="fill:#ffffff;stroke:#348abd;stroke-width:1.25;" x="794.751272727" xlink:href="#m08ac2dbe1b" y="497.546033004"/>
     <use style="fill:#ffffff;stroke:#348abd;stroke-width:1.25;" x="802.044727273" xlink:href="#m08ac2dbe1b" y="497.955678987"/>
     <use style="fill:#ffffff;stroke:#348abd;stroke-width:1.25;" x="809.338181818" xlink:href="#m08ac2dbe1b" y="498.312820782"/>
     <use style="fill:#ffffff;stroke:#348abd;stroke-width:1.25;" x="816.631636364" xlink:href="#m08ac2dbe1b" y="498.625142625"/>
     <use style="fill:#ffffff;stroke:#348abd;stroke-width:1.25;" x="823.925090909" xlink:href="#m08ac2dbe1b" y="498.899070314"/>
     <use style="fill:#ffffff;stroke:#348abd;stroke-width:1.25;" x="831.218545455" xlink:href="#m08ac2dbe1b" y="499.139998283"/>
     <use style="fill:#ffffff;stroke:#348abd;stroke-width:1.25;" x="838.512" xlink:href="#m08ac2dbe1b" y="499.352472081"/>
    </g>
   </g>
   <g id="patch_3">
    <path d="
M116.46 57.6
L838.512 57.6" style="fill:none;"/>
   </g>
   <g id="patch_4">
    <path d="
M838.512 504
L838.512 57.6" style="fill:none;"/>
   </g>
   <g id="patch_5">
    <path d="
M116.46 504
L838.512 504" style="fill:none;stroke:#bcbcbc;stroke-linecap:square;stroke-linejoin:miter;"/>
   </g>
   <g id="patch_6">
    <path d="
M116.46 504
L116.46 57.6" style="fill:none;stroke:#bcbcbc;stroke-linecap:square;stroke-linejoin:miter;"/>
   </g>
   <g id="text_10">
    <!-- 5TH ORDER 1KHZ BUTTERWORTH FILTER -->
    <defs>
     <path d="
M39.4062 66.2188
Q28.6562 66.2188 22.3281 58.2031
Q16.0156 50.2031 16.0156 36.375
Q16.0156 22.6094 22.3281 14.5938
Q28.6562 6.59375 39.4062 6.59375
Q50.1406 6.59375 56.4219 14.5938
Q62.7031 22.6094 62.7031 36.375
Q62.7031 50.2031 56.4219 58.2031
Q50.1406 66.2188 39.4062 66.2188
M39.4062 74.2188
Q54.7344 74.2188 63.9062 63.9375
Q73.0938 53.6562 73.0938 36.375
Q73.0938 19.1406 63.9062 8.85938
Q54.7344 -1.42188 39.4062 -1.42188
Q24.0312 -1.42188 14.8125 8.82812
Q5.60938 19.0938 5.60938 36.375
Q5.60938 53.6562 14.8125 63.9375
Q24.0312 74.2188 39.4062 74.2188" id="BitstreamVeraSans-Roman-4f"/>
     <path d="
M9.8125 72.9062
L19.6719 72.9062
L19.6719 8.29688
L55.1719 8.29688
L55.1719 0
L9.8125 0
z
" id="BitstreamVeraSans-Roman-4c"/>
     <path d="
M9.8125 72.9062
L19.6719 72.9062
L19.6719 42.0938
L52.3906 72.9062
L65.0938 72.9062
L28.9062 38.9219
L67.6719 0
L54.6875 0
L19.6719 35.1094
L19.6719 0
L9.8125 0
z
" id="BitstreamVeraSans-Roman-4b"/>
     <path d="
M5.60938 72.9062
L62.8906 72.9062
L62.8906 65.375
L16.7969 8.29688
L64.0156 8.29688
L64.0156 0
L4.5 0
L4.5 7.51562
L50.5938 64.5938
L5.60938 64.5938
z
" id="BitstreamVeraSans-Roman-5a"/>
     <path d="
M9.8125 72.9062
L55.9062 72.9062
L55.9062 64.5938
L19.6719 64.5938
L19.6719 43.0156
L54.3906 43.0156
L54.3906 34.7188
L19.6719 34.7188
L19.6719 8.29688
L56.7812 8.29688
L56.7812 0
L9.8125 0
z
" id="BitstreamVeraSans-Roman-45"/>
     <path d="
M9.8125 72.9062
L51.7031 72.9062
L51.7031 64.5938
L19.6719 64.5938
L19.6719 43.1094
L48.5781 43.1094
L48.5781 34.8125
L19.6719 34.8125
L19.6719 0
L9.8125 0
z
" id="BitstreamVeraSans-Roman-46"/>
     <path d="
M44.3906 34.1875
Q47.5625 33.1094 50.5625 29.5938
Q53.5625 26.0781 56.5938 19.9219
L66.6094 0
L56 0
L46.6875 18.7031
Q43.0625 26.0312 39.6719 28.4219
Q36.2812 30.8125 30.4219 30.8125
L19.6719 30.8125
L19.6719 0
L9.8125 0
L9.8125 72.9062
L32.0781 72.9062
Q44.5781 72.9062 50.7344 67.6719
Q56.8906 62.4531 56.8906 51.9062
Q56.8906 45.0156 53.6875 40.4688
Q50.4844 35.9375 44.3906 34.1875
M19.6719 64.7969
L19.6719 38.9219
L32.0781 38.9219
Q39.2031 38.9219 42.8438 42.2188
Q46.4844 45.5156 46.4844 51.9062
Q46.4844 58.2969 42.8438 61.5469
Q39.2031 64.7969 32.0781 64.7969
z
" id="BitstreamVeraSans-Roman-52"/>
     <path d="
M19.6719 64.7969
L19.6719 8.10938
L31.5938 8.10938
Q46.6875 8.10938 53.6875 14.9375
Q60.6875 21.7812 60.6875 36.5312
Q60.6875 51.1719 53.6875 57.9844
Q46.6875 64.7969 31.5938 64.7969
z

M9.8125 72.9062
L30.0781 72.9062
Q51.2656 72.9062 61.1719 64.0938
Q71.0938 55.2812 71.0938 36.5312
Q71.0938 17.6719 61.125 8.82812
Q51.1719 0 30.0781 0
L9.8125 0
z
" id="BitstreamVeraSans-Roman-44"/>
     <path d="
M-0.296875 72.9062
L61.375 72.9062
L61.375 64.5938
L35.5 64.5938
L35.5 0
L25.5938 0
L25.5938 64.5938
L-0.296875 64.5938
z
" id="BitstreamVeraSans-Roman-54"/>
     <path d="
M19.6719 34.8125
L19.6719 8.10938
L35.5 8.10938
Q43.4531 8.10938 47.2812 11.4062
Q51.125 14.7031 51.125 21.4844
Q51.125 28.3281 47.2812 31.5625
Q43.4531 34.8125 35.5 34.8125
z

M19.6719 64.7969
L19.6719 42.8281
L34.2812 42.8281
Q41.5 42.8281 45.0312 45.5312
Q48.5781 48.25 48.5781 53.8125
Q48.5781 59.3281 45.0312 62.0625
Q41.5 64.7969 34.2812 64.7969
z

M9.8125 72.9062
L35.0156 72.9062
Q46.2969 72.9062 52.3906 68.2188
Q58.5 63.5312 58.5 54.8906
Q58.5 48.1875 55.375 44.2344
Q52.25 40.2812 46.1875 39.3125
Q53.4688 37.75 57.5 32.7812
Q61.5312 27.8281 61.5312 20.4062
Q61.5312 10.6406 54.8906 5.3125
Q48.25 0 35.9844 0
L9.8125 0
z
" id="BitstreamVeraSans-Roman-42"/>
     <path d="
M3.32812 72.9062
L13.2812 72.9062
L28.6094 11.2812
L43.8906 72.9062
L54.9844 72.9062
L70.3125 11.2812
L85.5938 72.9062
L95.6094 72.9062
L77.2969 0
L64.8906 0
L49.5156 63.2812
L33.9844 0
L21.5781 0
z
" id="BitstreamVeraSans-Roman-57"/>
     <path d="
M9.8125 72.9062
L19.6719 72.9062
L19.6719 0
L9.8125 0
z
" id="BitstreamVeraSans-Roman-49"/>
     <path d="
M8.6875 72.9062
L18.6094 72.9062
L18.6094 28.6094
Q18.6094 16.8906 22.8438 11.7344
Q27.0938 6.59375 36.625 6.59375
Q46.0938 6.59375 50.3438 11.7344
Q54.5938 16.8906 54.5938 28.6094
L54.5938 72.9062
L64.5 72.9062
L64.5 27.3906
Q64.5 13.1406 57.4375 5.85938
Q50.3906 -1.42188 36.625 -1.42188
Q22.7969 -1.42188 15.7344 5.85938
Q8.6875 13.1406 8.6875 27.3906
z
" id="BitstreamVeraSans-Roman-55"/>
    </defs>
    <g transform="translate(330.27075 52.6)scale(0.144 -0.144)">
     <use xlink:href="#BitstreamVeraSans-Roman-35"/>
     <use x="63.623046875" xlink:href="#BitstreamVeraSans-Roman-54"/>
     <use x="124.70703125" xlink:href="#BitstreamVeraSans-Roman-48"/>
     <use x="199.90234375" xlink:href="#BitstreamVeraSans-Roman-20"/>
     <use x="231.689453125" xlink:href="#BitstreamVeraSans-Roman-4f"/>
     <use x="310.400390625" xlink:href="#BitstreamVeraSans-Roman-52"/>
     <use x="379.8828125" xlink:href="#BitstreamVeraSans-Roman-44"/>
     <use x="456.884765625" xlink:href="#BitstreamVeraSans-Roman-45"/>
     <use x="520.068359375" xlink:href="#BitstreamVeraSans-Roman-52"/>
     <use x="589.55078125" xlink:href="#BitstreamVeraSans-Roman-20"/>
     <use x="621.337890625" xlink:href="#BitstreamVeraSans-Roman-31"/>
     <use x="684.9609375" xlink:href="#BitstreamVeraSans-Roman-4b"/>
     <use x="750.537109375" xlink:href="#BitstreamVeraSans-Roman-48"/>
     <use x="825.732421875" xlink:href="#BitstreamVeraSans-Roman-5a"/>
     <use x="894.23828125" xlink:href="#BitstreamVeraSans-Roman-20"/>
     <use x="926.025390625" xlink:href="#BitstreamVeraSans-Roman-42"/>
     <use x="994.62890625" xlink:href="#BitstreamVeraSans-Roman-55"/>
     <use x="1067.82226562" xlink:href="#BitstreamVeraSans-Roman-54"/>
     <use x="1127.15625" xlink:href="#BitstreamVeraSans-Roman-54"/>
     <use x="1188.24023438" xlink:href="#BitstreamVeraSans-Roman-45"/>
     <use x="1251.42382812" xlink:href="#BitstreamVeraSans-Roman-52"/>
     <use x="1316.90625" xlink:href="#BitstreamVeraSans-Roman-57"/>
     <use x="1415.78320312" xlink:href="#BitstreamVeraSans-Roman-4f"/>
     <use x="1494.49414062" xlink:href="#BitstreamVeraSans-Roman-52"/>
     <use x="1556.7265625" xlink:href="#BitstreamVeraSans-Roman-54"/>
     <use x="1617.81054688" xlink:href="#BitstreamVeraSans-Roman-48"/>
     <use x="1693.00585938" xlink:href="#BitstreamVeraSans-Roman-20"/>
     <use x="1724.79296875" xlink:href="#BitstreamVeraSans-Roman-46"/>
     <use x="1782.3125" xlink:href="#BitstreamVeraSans-Roman-49"/>
     <use x="1811.8046875" xlink:href="#BitstreamVeraSans-Roman-4c"/>
     <use x="1853.76757812" xlink:href="#BitstreamVeraSans-Roman-54"/>
     <use x="1914.8515625" xlink:href="#BitstreamVeraSans-Roman-45"/>
     <use x="1978.03515625" xlink:href="#BitstreamVeraSans-Roman-52"/>
    </g>
   </g>
   <g id="legend_1">
    <g id="patch_7">
     <path d="
M740.559 82.9
L830.812 82.9
Q833.012 82.9 833.012 80.7
L833.012 65.3
Q833.012 63.1 830.812 63.1
L740.559 63.1
Q738.359 63.1 738.359 65.3
L738.359 80.7
Q738.359 82.9 740.559 82.9
L740.559 82.9" style="fill:none;stroke:#bcbcbc;stroke-linejoin:miter;stroke-width:0.5;"/>
    </g>
    <g id="line2d_16">
     <path d="
M742.759 72.0564
L764.759 72.0564" style="fill:none;stroke:#348abd;stroke-linecap:square;stroke-width:1.25;"/>
    </g>
    <g id="line2d_17">
     <g>
      <use style="fill:#ffffff;stroke:#348abd;stroke-width:1.25;" x="753.75871875" xlink:href="#m08ac2dbe1b" y="72.05640625"/>
     </g>
    </g>
    <g id="text_11">
     <!-- |Vn8| (AC) -->
     <defs>
      <path d="
M54.8906 33.0156
L54.8906 0
L45.9062 0
L45.9062 32.7188
Q45.9062 40.4844 42.875 44.3281
Q39.8438 48.1875 33.7969 48.1875
Q26.5156 48.1875 22.3125 43.5469
Q18.1094 38.9219 18.1094 30.9062
L18.1094 0
L9.07812 0
L9.07812 54.6875
L18.1094 54.6875
L18.1094 46.1875
Q21.3438 51.125 25.7031 53.5625
Q30.0781 56 35.7969 56
Q45.2188 56 50.0469 50.1719
Q54.8906 44.3438 54.8906 33.0156" id="BitstreamVeraSans-Roman-6e"/>
      <path d="
M31 75.875
Q24.4688 64.6562 21.2812 53.6562
Q18.1094 42.6719 18.1094 31.3906
Q18.1094 20.125 21.3125 9.0625
Q24.5156 -2 31 -13.1875
L23.1875 -13.1875
Q15.875 -1.70312 12.2344 9.375
Q8.59375 20.4531 8.59375 31.3906
Q8.59375 42.2812 12.2031 53.3125
Q15.8281 64.3594 23.1875 75.875
z
" id="BitstreamVeraSans-Roman-28"/>
      <path d="
M31.7812 34.625
Q24.75 34.625 20.7188 30.8594
Q16.7031 27.0938 16.7031 20.5156
Q16.7031 13.9219 20.7188 10.1562
Q24.75 6.39062 31.7812 6.39062
Q38.8125 6.39062 42.8594 10.1719
Q46.9219 13.9688 46.9219 20.5156
Q46.9219 27.0938 42.8906 30.8594
Q38.875 34.625 31.7812 34.625
M21.9219 38.8125
Q15.5781 40.375 12.0312 44.7188
Q8.5 49.0781 8.5 55.3281
Q8.5 64.0625 14.7188 69.1406
Q20.9531 74.2188 31.7812 74.2188
Q42.6719 74.2188 48.875 69.1406
Q55.0781 64.0625 55.0781 55.3281
Q55.0781 49.0781 51.5312 44.7188
Q48 40.375 41.7031 38.8125
Q48.8281 37.1562 52.7969 32.3125
Q56.7812 27.4844 56.7812 20.5156
Q56.7812 9.90625 50.3125 4.23438
Q43.8438 -1.42188 31.7812 -1.42188
Q19.7344 -1.42188 13.25 4.23438
Q6.78125 9.90625 6.78125 20.5156
Q6.78125 27.4844 10.7812 32.3125
Q14.7969 37.1562 21.9219 38.8125
M18.3125 54.3906
Q18.3125 48.7344 21.8438 45.5625
Q25.3906 42.3906 31.7812 42.3906
Q38.1406 42.3906 41.7188 45.5625
Q45.3125 48.7344 45.3125 54.3906
Q45.3125 60.0625 41.7188 63.2344
Q38.1406 66.4062 31.7812 66.4062
Q25.3906 66.4062 21.8438 63.2344
Q18.3125 60.0625 18.3125 54.3906" id="BitstreamVeraSans-Roman-38"/>
      <path d="
M21 76.4219
L21 -23.5781
L12.7031 -23.5781
L12.7031 76.4219
z
" id="BitstreamVeraSans-Roman-7c"/>
      <path d="
M8.01562 75.875
L15.8281 75.875
Q23.1406 64.3594 26.7812 53.3125
Q30.4219 42.2812 30.4219 31.3906
Q30.4219 20.4531 26.7812 9.375
Q23.1406 -1.70312 15.8281 -13.1875
L8.01562 -13.1875
Q14.5 -2 17.7031 9.0625
Q20.9062 20.125 20.9062 31.3906
Q20.9062 42.6719 17.7031 53.6562
Q14.5 64.6562 8.01562 75.875" id="BitstreamVeraSans-Roman-29"/>
      <path d="
M64.4062 67.2812
L64.4062 56.8906
Q59.4219 61.5312 53.7812 63.8125
Q48.1406 66.1094 41.7969 66.1094
Q29.2969 66.1094 22.6562 58.4688
Q16.0156 50.8281 16.0156 36.375
Q16.0156 21.9688 22.6562 14.3281
Q29.2969 6.6875 41.7969 6.6875
Q48.1406 6.6875 53.7812 8.98438
Q59.4219 11.2812 64.4062 15.9219
L64.4062 5.60938
Q59.2344 2.09375 53.4375 0.328125
Q47.6562 -1.42188 41.2188 -1.42188
Q24.6562 -1.42188 15.125 8.70312
Q5.60938 18.8438 5.60938 36.375
Q5.60938 53.9531 15.125 64.0781
Q24.6562 74.2188 41.2188 74.2188
Q47.75 74.2188 53.5312 72.4844
Q59.3281 70.75 64.4062 67.2812" id="BitstreamVeraSans-Roman-43"/>
      <path d="
M34.1875 63.1875
L20.7969 26.9062
L47.6094 26.9062
z

M28.6094 72.9062
L39.7969 72.9062
L67.5781 0
L57.3281 0
L50.6875 18.7031
L17.8281 18.7031
L11.1875 0
L0.78125 0
z
" id="BitstreamVeraSans-Roman-41"/>
     </defs>
     <g transform="translate(773.55871875 75.90640625)scale(0.11 -0.11)">
      <use xlink:href="#BitstreamVeraSans-Roman-7c"/>
      <use x="33.69140625" xlink:href="#BitstreamVeraSans-Roman-56"/>
      <use x="102.099609375" xlink:href="#BitstreamVeraSans-Roman-6e"/>
      <use x="165.478515625" xlink:href="#BitstreamVeraSans-Roman-38"/>
      <use x="229.1015625" xlink:href="#BitstreamVeraSans-Roman-7c"/>
      <use x="262.79296875" xlink:href="#BitstreamVeraSans-Roman-20"/>
      <use x="294.580078125" xlink:href="#BitstreamVeraSans-Roman-28"/>
      <use x="333.59375" xlink:href="#BitstreamVeraSans-Roman-41"/>
      <use x="400.251953125" xlink:href="#BitstreamVeraSans-Roman-43"/>
      <use x="470.076171875" xlink:href="#BitstreamVeraSans-Roman-29"/>
     </g>
    </g>
   </g>
  </g>
 </g>
 <defs>
  <clipPath id="p8b3cb8134f">
   <rect height="446.4" width="722.052" x="116.46" y="57.6"/>
  </clipPath>
 </defs>
</svg>
